<svg version="1.1" id="Layer_1" xmlns="http://www.w3.org/2000/svg" xmlns:xlink="http://www.w3.org/1999/xlink" x="0px" y="0px"
	 width="100%" viewBox="0 0 500 500" enable-background="new 0 0 500 500" xml:space="preserve">
<path fill="#000000" opacity="1.000000" stroke="none" 
	d="
M279.000000,501.000000 
	C186.000015,501.000000 93.500046,501.000000 1.000050,501.000000 
	C1.000033,334.333405 1.000033,167.666794 1.000017,1.000139 
	C167.666565,1.000093 334.333130,1.000093 500.999756,1.000046 
	C500.999847,167.666519 500.999847,334.333038 500.999939,500.999786 
	C427.166656,501.000000 353.333344,501.000000 279.000000,501.000000 
M117.436226,132.043625 
	C117.270790,132.357529 117.105354,132.671448 116.998749,132.999649 
	C116.998749,132.999649 116.989700,132.939789 116.407860,133.074661 
	C116.219551,133.414291 116.031242,133.753922 115.369621,134.262985 
	C114.951622,134.768509 114.533623,135.274033 113.511414,136.027084 
	C113.288780,136.387192 113.066139,136.747299 112.348824,137.295181 
	C112.247292,137.805161 112.145767,138.315140 111.508171,139.044296 
	C111.319893,139.364792 111.131622,139.685303 111.008125,140.005173 
	C111.008125,140.005173 110.997581,139.941254 110.456322,140.062073 
	C110.290161,140.374420 110.124008,140.686752 110.010216,141.009293 
	C110.010216,141.009293 109.999542,140.957016 109.431465,141.108994 
	C109.249512,141.445816 109.067551,141.782654 108.375755,142.300507 
	C108.260933,142.820663 108.146111,143.340836 107.484444,144.049454 
	C107.300812,144.371948 107.117188,144.694443 107.015129,145.014526 
	C107.015129,145.014526 107.013512,144.932938 106.477997,145.089920 
	C106.299774,145.402222 106.121559,145.714508 106.016945,146.023254 
	C106.016945,146.023254 106.014473,145.949615 105.375763,146.160263 
	C104.896767,147.110947 104.417770,148.061630 104.017075,149.013733 
	C104.017075,149.013733 104.019333,148.935471 103.479103,149.087341 
	C103.302261,149.402023 103.125427,149.716690 103.024399,150.027405 
	C103.024399,150.027405 103.021835,149.951523 102.413231,150.179977 
	C102.266617,150.799988 102.119995,151.419998 102.041168,152.032578 
	C102.041168,152.032578 102.033951,151.964767 101.522415,152.143250 
	C101.339546,152.443405 101.156670,152.743561 101.040802,153.047470 
	C101.040802,153.047470 101.044449,152.980453 100.431198,153.187836 
	C100.263840,153.801270 100.096481,154.414719 100.020721,155.025452 
	C100.020721,155.025452 100.019264,154.933823 99.465927,155.064468 
	C99.290298,155.383530 99.114662,155.702591 99.010544,156.012314 
	C99.010544,156.012314 99.001831,155.940704 98.391960,156.195282 
	C97.940002,157.134781 97.488045,158.074295 96.997009,158.999359 
	C96.997009,158.999359 97.020088,159.034119 96.436111,159.275665 
	C96.244072,159.875366 96.052032,160.475052 95.238358,161.351593 
	C86.522049,175.304199 80.133408,190.238495 75.456490,206.027298 
	C70.486511,222.805450 68.577545,239.999954 68.250328,257.308228 
	C68.075516,266.555298 69.353058,275.996002 71.266594,285.077179 
	C74.092812,298.489716 77.006683,312.062592 81.842339,324.824890 
	C87.147011,338.825043 94.869812,351.822327 103.994095,363.924255 
	C118.216698,382.788330 135.112152,398.664612 155.283951,410.906494 
	C170.576614,420.187317 186.792480,427.650421 204.336868,431.480286 
	C215.445145,433.905182 226.756943,435.908997 238.075760,436.706329 
	C248.252274,437.423218 258.565826,435.891571 268.813538,435.979736 
	C280.807739,436.082886 291.997131,432.334503 303.168457,429.053467 
	C313.030121,426.157043 322.443573,421.628662 331.889923,417.447998 
	C347.879059,410.371674 361.472351,399.639496 374.259918,388.002441 
	C387.654785,375.812714 398.785889,361.550323 407.406830,345.656952 
	C412.860962,335.601837 417.343140,324.900635 421.114502,314.089172 
	C424.139282,305.417999 425.695129,296.193970 427.426758,287.124359 
	C428.945923,279.167572 430.550537,271.106079 430.783539,263.052246 
	C431.162262,249.962524 430.473999,237.030609 427.562927,223.934647 
	C425.366821,214.055023 423.275635,204.186386 420.025421,194.629547 
	C414.264343,177.689804 405.563171,162.234772 394.909515,147.909576 
	C383.136444,132.079208 369.284485,118.081718 352.867706,107.308525 
	C340.792297,99.384270 327.480865,93.166588 314.259064,87.212486 
	C298.880798,80.287277 282.357086,77.022659 265.550812,76.231926 
	C252.226685,75.605026 238.688568,74.827087 225.541321,76.475632 
	C212.671463,78.089394 200.019943,82.191444 187.558044,86.109329 
	C174.085358,90.345009 161.455368,96.626411 149.559982,105.127785 
	C149.356476,105.424896 149.152954,105.722000 149.021545,106.017319 
	C149.021545,106.017319 149.020844,105.945190 148.355515,106.045197 
	C147.549835,106.691345 146.744141,107.337494 146.000824,107.995087 
	C146.000824,107.995087 145.995331,107.931908 145.330963,108.013565 
	C144.540161,108.678497 143.749359,109.343430 143.020523,110.015167 
	C143.020523,110.015167 143.017700,109.952881 142.490677,110.111359 
	C142.312546,110.419022 142.134399,110.726677 142.031403,111.030403 
	C142.031403,111.030403 142.029144,110.955185 141.374207,111.077225 
	C140.565033,111.714958 139.755844,112.352692 139.007507,113.006783 
	C139.007507,113.006783 139.011230,112.943893 138.457260,113.077385 
	C138.259354,113.391121 138.061447,113.704857 137.381592,114.170288 
	C137.034180,114.534592 136.686783,114.898895 135.718185,115.074722 
	C135.465332,115.378410 135.212494,115.682098 135.004425,116.003944 
	C135.004425,116.003944 134.991455,115.957413 134.449768,116.062843 
	C134.281662,116.372902 134.113556,116.682968 134.003525,117.006241 
	C134.003525,117.006241 133.997314,116.947014 133.451538,117.060226 
	C133.277954,117.372459 133.104355,117.684685 132.999710,118.000534 
	C132.999710,118.000534 133.000122,117.931503 132.422729,118.081238 
	C132.233429,118.419998 132.044128,118.758759 131.441727,119.226562 
	C131.191208,119.410126 131.057343,119.656952 130.405807,120.061897 
	C129.917007,120.373108 129.428223,120.684311 129.006195,121.003113 
	C129.006195,121.003113 129.007675,120.935921 128.450760,121.031693 
	C128.280243,121.348099 128.109726,121.664513 127.996796,121.996628 
	C127.996796,121.996628 127.980698,121.939148 127.433281,122.041481 
	C127.268990,122.355583 127.104698,122.669693 126.998085,122.998093 
	C126.998085,122.998093 126.983391,122.940514 126.434502,123.041656 
	C126.271492,123.356812 126.108482,123.671974 126.001236,124.000664 
	C126.001236,124.000664 125.986168,123.945290 125.443649,124.052055 
	C125.277802,124.363228 125.111954,124.674400 125.000717,125.000717 
	C125.000717,125.000717 124.985054,124.946243 124.442337,125.053223 
	C124.277390,125.364914 124.112434,125.676598 124.002373,126.002243 
	C124.002373,126.002243 123.988800,125.947258 123.448807,126.061356 
	C123.282043,126.371948 123.115288,126.682533 123.004654,127.004677 
	C123.004654,127.004677 122.993088,126.948547 122.451820,127.060211 
	C122.283325,127.370598 122.114830,127.680992 122.003174,128.003174 
	C122.003174,128.003174 121.991333,127.946335 121.451942,128.059799 
	C121.282715,128.369003 121.113487,128.678192 121.000603,129.000732 
	C121.000603,129.000732 120.985909,128.944733 120.442009,129.047134 
	C120.276451,129.358459 120.110901,129.669800 119.999168,129.999191 
	C119.999168,129.999191 119.981003,129.945389 119.437866,130.049072 
	C119.273148,130.360626 119.108429,130.672165 118.999313,130.999695 
	C118.999313,130.999695 118.984596,130.943741 118.437325,131.043732 
	C118.272072,131.357086 118.106827,131.670456 117.998627,131.998672 
	C117.998627,131.998672 117.983887,131.941605 117.436226,132.043625 
M225.600830,37.017914 
	C222.412094,42.458839 219.184387,47.877403 216.045700,53.347061 
	C212.981949,58.686176 214.172134,61.117340 220.110107,60.840591 
	C226.317947,60.551262 232.506912,58.977852 238.684143,59.087883 
	C253.043167,59.343658 267.388519,60.317440 281.744141,60.879181 
	C283.584564,60.951195 285.453186,60.303452 287.308746,59.989140 
	C286.948456,57.913059 287.118073,55.538197 286.142914,53.808838 
	C279.226990,41.543869 271.898438,29.510233 265.051636,17.207949 
	C258.383759,5.227114 245.967285,3.546548 238.475739,14.414779 
	C233.714737,21.321726 230.150391,29.053522 225.600830,37.017914 
M446.079102,238.495575 
	C446.397644,243.430054 446.520020,248.388962 447.129517,253.287231 
	C447.379883,255.299561 448.220215,258.188629 449.634430,258.834351 
	C451.003235,259.459320 453.787598,258.148773 455.369568,256.932892 
	C461.078491,252.545074 466.626801,247.936203 472.077332,243.227402 
	C478.556274,237.630157 485.211945,232.173035 491.152313,226.036850 
	C496.078033,220.948776 498.033020,216.950333 493.774719,210.915024 
	C491.309845,207.421524 487.513519,204.132263 483.590179,202.536194 
	C470.003693,197.009094 456.121552,192.200378 442.282684,187.314316 
	C440.788330,186.786697 438.254272,186.925522 437.273895,187.868790 
	C436.315735,188.790665 436.554504,191.143280 436.604187,192.858109 
	C436.635620,193.942978 437.407898,194.984314 437.635437,196.088943 
	C440.480530,209.902374 443.286743,223.723801 446.079102,238.495575 
M53.955925,232.519699 
	C55.431522,218.911880 58.635105,205.703583 62.856659,192.698242 
	C63.545166,190.577148 63.860210,186.602020 62.876919,186.035110 
	C60.886166,184.887329 57.600384,184.689941 55.350990,185.498489 
	C41.573978,190.450623 28.108189,196.318604 14.200448,200.841232 
	C3.036211,204.471680 2.634284,219.059036 9.345661,224.790039 
	C13.710288,228.517075 18.120859,232.190338 22.483889,235.919235 
	C29.601910,242.002686 36.633011,248.189880 43.829124,254.179077 
	C47.739452,257.433594 51.281662,256.234802 51.963223,251.444168 
	C52.813629,245.466675 53.295940,239.436798 53.955925,232.519699 
M147.695618,427.106995 
	C147.169403,430.222443 145.803085,433.468048 146.262039,436.430878 
	C148.274292,449.420929 150.655899,462.361298 153.264038,475.246704 
	C154.013153,478.947693 155.122345,483.181885 157.541611,485.817566 
	C163.277435,492.066467 170.147369,492.297546 177.161179,487.200623 
	C182.040207,483.655060 186.625031,479.696106 191.256546,475.820526 
	C198.558380,469.710480 205.894928,463.634308 213.003159,457.303925 
	C216.354675,454.319153 215.626190,451.533173 211.288223,450.133270 
	C208.850296,449.346558 206.023117,449.693970 203.647491,448.798096 
	C188.682281,443.154297 173.785675,437.327728 158.887787,431.506866 
	C155.396317,430.142731 151.987030,428.568268 147.695618,427.106995 
M349.485962,443.935974 
	C349.966248,441.207214 350.701263,438.491547 350.842743,435.745331 
	C350.947845,433.705078 350.848877,430.273346 349.840607,429.851410 
	C347.893524,429.036591 344.844849,429.174957 342.940369,430.198059 
	C324.553864,440.075043 304.861786,446.192749 284.698303,451.049011 
	C280.379913,452.089050 279.701965,454.148834 283.020721,457.307800 
	C287.050720,461.143677 291.390839,464.665466 295.713226,468.179901 
	C303.955139,474.881195 312.072601,481.763000 320.628204,488.043396 
	C329.188171,494.327087 340.467041,490.401093 342.726776,480.200317 
	C345.325409,468.469727 346.956390,456.524750 349.485962,443.935974 
M121.026436,106.419167 
	C121.616226,106.139793 122.265587,105.943344 122.786964,105.568748 
	C131.915390,99.010025 141.063416,92.477089 150.093399,85.784988 
	C151.066833,85.063576 152.025711,83.216003 151.768539,82.200516 
	C151.384857,80.685631 150.186325,78.676575 148.862961,78.207222 
	C133.533005,72.770203 118.179939,67.378777 102.692993,62.411781 
	C94.169739,59.678185 85.576935,66.168488 86.251259,74.975388 
	C86.996956,84.714478 88.634270,94.396729 90.154045,104.061157 
	C91.185135,110.618027 92.430443,117.165215 94.053413,123.597267 
	C95.304977,128.557358 98.150352,129.220108 101.654648,125.764694 
	C107.981857,119.525719 114.238701,113.215385 121.026436,106.419167 
M395.573486,123.011818 
	C397.019226,124.785637 398.317291,126.710304 399.942230,128.301056 
	C403.073914,131.366852 406.740570,130.436630 407.765656,126.276291 
	C408.689606,122.526520 409.247467,118.685173 409.931061,114.877808 
	C411.881622,104.013962 413.747406,93.134384 415.779816,82.285965 
	C416.895355,76.331596 413.788025,66.200211 409.417755,65.476974 
	C403.618744,64.517296 397.137604,63.927944 391.656586,65.557480 
	C379.171112,69.269470 367.085205,74.350388 354.920532,79.089561 
	C353.092346,79.801796 350.597565,81.545593 350.431946,83.036659 
	C350.254761,84.632172 352.093231,87.027786 353.697693,88.155090 
	C368.415924,98.496307 383.403168,108.482376 395.573486,123.011818 
M419.509949,356.039825 
	C413.858948,364.369476 408.092133,372.624725 402.653717,381.090942 
	C401.552490,382.805298 401.287018,385.358398 401.500488,387.435974 
	C401.566559,388.079346 404.486420,388.837524 406.104980,388.849915 
	C421.254761,388.965790 436.407440,389.065857 451.555328,388.867249 
	C456.955780,388.796448 462.337708,386.989105 464.779266,381.913879 
	C467.155426,376.974487 466.692383,371.438538 463.819427,366.440308 
	C457.046631,354.657288 450.350769,342.828400 443.408508,331.145966 
	C442.029236,328.824890 439.688477,327.075104 437.791107,325.061890 
	C435.818787,327.262085 433.805359,329.427643 431.902649,331.686523 
	C431.419159,332.260498 431.341370,333.158142 430.986420,333.861237 
	C427.343079,341.078064 423.681030,348.285400 419.509949,356.039825 
M41.614925,351.034180 
	C38.779736,355.953339 35.685291,360.743744 33.164379,365.819000 
	C28.217455,375.778564 34.364891,385.788300 45.401928,385.880768 
	C60.705345,386.009033 76.010483,386.020721 91.314011,385.931091 
	C93.127144,385.920502 94.934715,384.960449 96.744858,384.440491 
	C96.039040,382.362274 95.709335,380.044708 94.564659,378.245728 
	C88.410416,368.573547 81.623772,359.278259 75.903809,349.363434 
	C71.401459,341.559204 68.181038,333.020599 64.284477,324.859161 
	C62.610493,321.352966 58.394272,320.910126 56.591236,324.081940 
	C51.635780,332.799286 46.850956,341.613617 41.614925,351.034180 
z"/>
<path fill="#FEAA02" opacity="1.000000" stroke="none" 
	d="
M108.031281,143.860992 
	C108.146111,143.340836 108.260933,142.820663 108.897079,142.101074 
	C109.612122,141.586761 109.805832,141.271881 109.999542,140.957016 
	C109.999542,140.957016 110.010216,141.009293 110.242676,140.928375 
	C110.649284,140.545395 110.823433,140.243332 110.997581,139.941254 
	C110.997581,139.941254 111.008125,140.005173 111.225372,139.879791 
	C111.643166,139.444656 111.843697,139.134888 112.044235,138.825119 
	C112.145767,138.315140 112.247292,137.805161 112.895729,137.075165 
	C113.666962,136.496628 113.891289,136.138092 114.115616,135.779556 
	C114.533623,135.274033 114.951622,134.768509 115.873886,134.069504 
	C116.582008,133.563950 116.785858,133.251862 116.989700,132.939789 
	C116.989700,132.939789 116.998749,132.999649 117.229782,132.921356 
	C117.635170,132.542587 117.809525,132.242096 117.983887,131.941605 
	C117.983887,131.941605 117.998627,131.998672 118.231232,131.922577 
	C118.637413,131.545578 118.810997,131.244659 118.984589,130.943741 
	C118.984596,130.943741 118.999313,130.999695 119.235275,130.927155 
	C119.641159,130.551544 119.811081,130.248459 119.981003,129.945389 
	C119.981003,129.945389 119.999168,129.999191 120.236984,129.929077 
	C120.645164,129.554214 120.815536,129.249466 120.985909,128.944733 
	C120.985909,128.944733 121.000603,129.000732 121.230011,128.919586 
	C121.636726,128.541061 121.814034,128.243698 121.991333,127.946335 
	C121.991333,127.946335 122.003174,128.003174 122.232132,127.922050 
	C122.638428,127.543472 122.815758,127.246010 122.993088,126.948547 
	C122.993088,126.948547 123.004654,127.004677 123.234200,126.923531 
	C123.638763,126.544006 123.813782,126.245636 123.988800,125.947258 
	C123.988800,125.947258 124.002373,126.002243 124.237236,125.928436 
	C124.643089,125.551842 124.814079,125.249046 124.985062,124.946243 
	C124.985054,124.946243 125.000717,125.000717 125.235062,124.925972 
	C125.641663,124.549248 125.813919,124.247269 125.986176,123.945297 
	C125.986168,123.945290 126.001236,124.000664 126.233963,123.923676 
	C126.638924,123.544632 126.811150,123.242569 126.983383,122.940506 
	C126.983391,122.940514 126.998085,122.998093 127.230301,122.920654 
	C127.635239,122.541870 127.807968,122.240509 127.980698,121.939148 
	C127.980698,121.939148 127.996796,121.996628 128.232300,121.920670 
	C128.647766,121.541786 128.827728,121.238853 129.007675,120.935921 
	C129.007675,120.935921 129.006195,121.003113 129.271042,120.955788 
	C130.037323,120.594658 130.538742,120.280853 131.040161,119.967056 
	C131.057343,119.656952 131.191208,119.410126 131.906006,119.038368 
	C132.580231,118.543953 132.790176,118.237724 133.000122,117.931503 
	C133.000122,117.931503 132.999710,118.000534 133.214035,117.906281 
	C133.618011,117.523697 133.807663,117.235352 133.997314,116.947014 
	C133.997314,116.947014 134.003525,117.006241 134.234619,116.930183 
	C134.640961,116.555222 134.816208,116.256317 134.991455,115.957413 
	C134.991455,115.957413 135.004425,116.003944 135.253418,115.974846 
	C135.781403,115.718239 136.060394,115.490723 136.339386,115.263199 
	C136.686783,114.898895 137.034180,114.534592 137.870911,113.981689 
	C138.577225,113.510033 138.794220,113.226959 139.011230,112.943893 
	C139.011230,112.943893 139.007507,113.006783 139.320312,113.009796 
	C140.431793,112.326935 141.230469,111.641060 142.029144,110.955185 
	C142.029144,110.955185 142.031403,111.030403 142.228760,110.914871 
	C142.623306,110.517189 142.820511,110.235039 143.017700,109.952881 
	C143.017700,109.952881 143.020523,110.015167 143.331680,110.016083 
	C144.427002,109.321968 145.211166,108.626938 145.995331,107.931908 
	C145.995331,107.931908 146.000824,107.995087 146.311325,108.005257 
	C147.421494,107.325348 148.221176,106.635269 149.020844,105.945190 
	C149.020844,105.945190 149.021545,106.017319 149.209198,105.935715 
	C149.683594,105.702866 149.923599,105.497086 150.116867,105.236778 
	C161.455368,96.626411 174.085358,90.345009 187.558044,86.109329 
	C200.019943,82.191444 212.671463,78.089394 225.541321,76.475632 
	C238.688568,74.827087 252.226685,75.605026 265.550812,76.231926 
	C282.357086,77.022659 298.880798,80.287277 314.259064,87.212486 
	C327.480865,93.166588 340.792297,99.384270 352.867706,107.308525 
	C369.284485,118.081718 383.136444,132.079208 394.909515,147.909576 
	C405.563171,162.234772 414.264343,177.689804 420.025421,194.629547 
	C423.275635,204.186386 425.366821,214.055023 427.562927,223.934647 
	C430.473999,237.030609 431.162262,249.962524 430.783539,263.052246 
	C430.550537,271.106079 428.945923,279.167572 427.426758,287.124359 
	C425.695129,296.193970 424.139282,305.417999 421.114502,314.089172 
	C417.343140,324.900635 412.860962,335.601837 407.406830,345.656952 
	C398.785889,361.550323 387.654785,375.812714 374.259918,388.002441 
	C361.472351,399.639496 347.879059,410.371674 331.889923,417.447998 
	C322.443573,421.628662 313.030121,426.157043 303.168457,429.053467 
	C291.997131,432.334503 280.807739,436.082886 268.813538,435.979736 
	C258.565826,435.891571 248.252274,437.423218 238.075760,436.706329 
	C226.756943,435.908997 215.445145,433.905182 204.336868,431.480286 
	C186.792480,427.650421 170.576614,420.187317 155.283951,410.906494 
	C135.112152,398.664612 118.216698,382.788330 103.994095,363.924255 
	C94.869812,351.822327 87.147011,338.825043 81.842339,324.824890 
	C77.006683,312.062592 74.092812,298.489716 71.266594,285.077179 
	C69.353058,275.996002 68.075516,266.555298 68.250328,257.308228 
	C68.577545,239.999954 70.486511,222.805450 75.456490,206.027298 
	C80.133408,190.238495 86.522049,175.304199 95.798615,161.029388 
	C96.579269,160.149490 96.799683,159.591812 97.020096,159.034119 
	C97.020088,159.034119 96.997009,158.999359 97.322479,158.877869 
	C98.099251,157.817841 98.550545,156.879272 99.001831,155.940704 
	C99.001831,155.940704 99.010544,156.012314 99.217941,155.906799 
	C99.623306,155.512115 99.821289,155.222977 100.019264,154.933823 
	C100.019264,154.933823 100.020721,155.025452 100.215210,154.840500 
	C100.621277,154.097183 100.832863,153.538818 101.044449,152.980453 
	C101.044449,152.980453 101.040802,153.047470 101.229752,152.914993 
	C101.623795,152.509933 101.828873,152.237350 102.033951,151.964767 
	C102.033951,151.964767 102.041168,152.032578 102.235382,151.835693 
	C102.627014,151.076385 102.824425,150.513962 103.021835,149.951523 
	C103.021835,149.951523 103.024399,150.027405 103.222717,149.909546 
	C103.620468,149.506271 103.819901,149.220871 104.019333,148.935471 
	C104.019333,148.935471 104.017075,149.013733 104.307465,148.923553 
	C105.070061,147.872131 105.542267,146.910873 106.014473,145.949615 
	C106.014473,145.949615 106.016945,146.023254 106.216042,145.905151 
	C106.614601,145.502335 106.814056,145.217636 107.013519,144.932938 
	C107.013512,144.932938 107.015129,145.014526 107.220612,144.891418 
	C107.627823,144.465866 107.829552,144.163422 108.031281,143.860992 
z"/>
<path fill="#F9A907" opacity="1.000000" stroke="none" 
	d="
M225.825134,36.716675 
	C230.150391,29.053522 233.714737,21.321726 238.475739,14.414779 
	C245.967285,3.546548 258.383759,5.227114 265.051636,17.207949 
	C271.898438,29.510233 279.226990,41.543869 286.142914,53.808838 
	C287.118073,55.538197 286.948456,57.913059 287.308746,59.989140 
	C285.453186,60.303452 283.584564,60.951195 281.744141,60.879181 
	C267.388519,60.317440 253.043167,59.343658 238.684143,59.087883 
	C232.506912,58.977852 226.317947,60.551262 220.110107,60.840591 
	C214.172134,61.117340 212.981949,58.686176 216.045700,53.347061 
	C219.184387,47.877403 222.412094,42.458839 225.825134,36.716675 
z"/>
<path fill="#F9A908" opacity="1.000000" stroke="none" 
	d="
M446.091003,238.019379 
	C443.286743,223.723801 440.480530,209.902374 437.635437,196.088943 
	C437.407898,194.984314 436.635620,193.942978 436.604187,192.858109 
	C436.554504,191.143280 436.315735,188.790665 437.273895,187.868790 
	C438.254272,186.925522 440.788330,186.786697 442.282684,187.314316 
	C456.121552,192.200378 470.003693,197.009094 483.590179,202.536194 
	C487.513519,204.132263 491.309845,207.421524 493.774719,210.915024 
	C498.033020,216.950333 496.078033,220.948776 491.152313,226.036850 
	C485.211945,232.173035 478.556274,237.630157 472.077332,243.227402 
	C466.626801,247.936203 461.078491,252.545074 455.369568,256.932892 
	C453.787598,258.148773 451.003235,259.459320 449.634430,258.834351 
	C448.220215,258.188629 447.379883,255.299561 447.129517,253.287231 
	C446.520020,248.388962 446.397644,243.430054 446.091003,238.019379 
z"/>
<path fill="#F9A908" opacity="1.000000" stroke="none" 
	d="
M53.946552,232.974625 
	C53.295940,239.436798 52.813629,245.466675 51.963223,251.444168 
	C51.281662,256.234802 47.739452,257.433594 43.829124,254.179077 
	C36.633011,248.189880 29.601910,242.002686 22.483889,235.919235 
	C18.120859,232.190338 13.710288,228.517075 9.345661,224.790039 
	C2.634284,219.059036 3.036211,204.471680 14.200448,200.841232 
	C28.108189,196.318604 41.573978,190.450623 55.350990,185.498489 
	C57.600384,184.689941 60.886166,184.887329 62.876919,186.035110 
	C63.860210,186.602020 63.545166,190.577148 62.856659,192.698242 
	C58.635105,205.703583 55.431522,218.911880 53.946552,232.974625 
z"/>
<path fill="#F9A908" opacity="1.000000" stroke="none" 
	d="
M148.117767,427.098785 
	C151.987030,428.568268 155.396317,430.142731 158.887787,431.506866 
	C173.785675,437.327728 188.682281,443.154297 203.647491,448.798096 
	C206.023117,449.693970 208.850296,449.346558 211.288223,450.133270 
	C215.626190,451.533173 216.354675,454.319153 213.003159,457.303925 
	C205.894928,463.634308 198.558380,469.710480 191.256546,475.820526 
	C186.625031,479.696106 182.040207,483.655060 177.161179,487.200623 
	C170.147369,492.297546 163.277435,492.066467 157.541611,485.817566 
	C155.122345,483.181885 154.013153,478.947693 153.264038,475.246704 
	C150.655899,462.361298 148.274292,449.420929 146.262039,436.430878 
	C145.803085,433.468048 147.169403,430.222443 148.117767,427.098785 
z"/>
<path fill="#F9A908" opacity="1.000000" stroke="none" 
	d="
M349.246826,444.304443 
	C346.956390,456.524750 345.325409,468.469727 342.726776,480.200317 
	C340.467041,490.401093 329.188171,494.327087 320.628204,488.043396 
	C312.072601,481.763000 303.955139,474.881195 295.713226,468.179901 
	C291.390839,464.665466 287.050720,461.143677 283.020721,457.307800 
	C279.701965,454.148834 280.379913,452.089050 284.698303,451.049011 
	C304.861786,446.192749 324.553864,440.075043 342.940369,430.198059 
	C344.844849,429.174957 347.893524,429.036591 349.840607,429.851410 
	C350.848877,430.273346 350.947845,433.705078 350.842743,435.745331 
	C350.701263,438.491547 349.966248,441.207214 349.246826,444.304443 
z"/>
<path fill="#F9A908" opacity="1.000000" stroke="none" 
	d="
M120.775688,106.677017 
	C114.238701,113.215385 107.981857,119.525719 101.654648,125.764694 
	C98.150352,129.220108 95.304977,128.557358 94.053413,123.597267 
	C92.430443,117.165215 91.185135,110.618027 90.154045,104.061157 
	C88.634270,94.396729 86.996956,84.714478 86.251259,74.975388 
	C85.576935,66.168488 94.169739,59.678185 102.692993,62.411781 
	C118.179939,67.378777 133.533005,72.770203 148.862961,78.207222 
	C150.186325,78.676575 151.384857,80.685631 151.768539,82.200516 
	C152.025711,83.216003 151.066833,85.063576 150.093399,85.784988 
	C141.063416,92.477089 131.915390,99.010025 122.786964,105.568748 
	C122.265587,105.943344 121.616226,106.139793 120.775688,106.677017 
z"/>
<path fill="#F9A908" opacity="1.000000" stroke="none" 
	d="
M395.306061,122.768150 
	C383.403168,108.482376 368.415924,98.496307 353.697693,88.155090 
	C352.093231,87.027786 350.254761,84.632172 350.431946,83.036659 
	C350.597565,81.545593 353.092346,79.801796 354.920532,79.089561 
	C367.085205,74.350388 379.171112,69.269470 391.656586,65.557480 
	C397.137604,63.927944 403.618744,64.517296 409.417755,65.476974 
	C413.788025,66.200211 416.895355,76.331596 415.779816,82.285965 
	C413.747406,93.134384 411.881622,104.013962 409.931061,114.877808 
	C409.247467,118.685173 408.689606,122.526520 407.765656,126.276291 
	C406.740570,130.436630 403.073914,131.366852 399.942230,128.301056 
	C398.317291,126.710304 397.019226,124.785637 395.306061,122.768150 
z"/>
<path fill="#F9A908" opacity="1.000000" stroke="none" 
	d="
M419.767090,355.767578 
	C423.681030,348.285400 427.343079,341.078064 430.986420,333.861237 
	C431.341370,333.158142 431.419159,332.260498 431.902649,331.686523 
	C433.805359,329.427643 435.818787,327.262085 437.791107,325.061890 
	C439.688477,327.075104 442.029236,328.824890 443.408508,331.145966 
	C450.350769,342.828400 457.046631,354.657288 463.819427,366.440308 
	C466.692383,371.438538 467.155426,376.974487 464.779266,381.913879 
	C462.337708,386.989105 456.955780,388.796448 451.555328,388.867249 
	C436.407440,389.065857 421.254761,388.965790 406.104980,388.849915 
	C404.486420,388.837524 401.566559,388.079346 401.500488,387.435974 
	C401.287018,385.358398 401.552490,382.805298 402.653717,381.090942 
	C408.092133,372.624725 413.858948,364.369476 419.767090,355.767578 
z"/>
<path fill="#FAA907" opacity="1.000000" stroke="none" 
	d="
M41.806767,350.711884 
	C46.850956,341.613617 51.635780,332.799286 56.591236,324.081940 
	C58.394272,320.910126 62.610493,321.352966 64.284477,324.859161 
	C68.181038,333.020599 71.401459,341.559204 75.903809,349.363434 
	C81.623772,359.278259 88.410416,368.573547 94.564659,378.245728 
	C95.709335,380.044708 96.039040,382.362274 96.744858,384.440491 
	C94.934715,384.960449 93.127144,385.920502 91.314011,385.931091 
	C76.010483,386.020721 60.705345,386.009033 45.401928,385.880768 
	C34.364891,385.788300 28.217455,375.778564 33.164379,365.819000 
	C35.685291,360.743744 38.779736,355.953339 41.806767,350.711884 
z"/>
<path fill="#E2AD4A" opacity="1.000000" stroke="none" 
	d="
M141.701675,111.016205 
	C141.230469,111.641060 140.431793,112.326935 139.289886,113.001617 
	C139.755844,112.352692 140.565033,111.714958 141.701675,111.016205 
z"/>
<path fill="#E2AD4A" opacity="1.000000" stroke="none" 
	d="
M105.695114,146.054932 
	C105.542267,146.910873 105.070061,147.872131 104.268318,148.922852 
	C104.417770,148.061630 104.896767,147.110947 105.695114,146.054932 
z"/>
<path fill="#E2AD4A" opacity="1.000000" stroke="none" 
	d="
M148.688171,105.995193 
	C148.221176,106.635269 147.421494,107.325348 146.280136,107.999535 
	C146.744141,107.337494 147.549835,106.691345 148.688171,105.995193 
z"/>
<path fill="#E2AD4A" opacity="1.000000" stroke="none" 
	d="
M98.696899,156.067993 
	C98.550545,156.879272 98.099251,157.817841 97.342026,158.885101 
	C97.488045,158.074295 97.940002,157.134781 98.696899,156.067993 
z"/>
<path fill="#E2AD4A" opacity="1.000000" stroke="none" 
	d="
M145.663147,107.972733 
	C145.211166,108.626938 144.427002,109.321968 143.300690,110.012680 
	C143.749359,109.343430 144.540161,108.678497 145.663147,107.972733 
z"/>
<path fill="#E2AD4A" opacity="1.000000" stroke="none" 
	d="
M96.728104,159.154892 
	C96.799683,159.591812 96.579269,160.149490 96.109428,160.890961 
	C96.052032,160.475052 96.244072,159.875366 96.728104,159.154892 
z"/>
<path fill="#E2AD4A" opacity="1.000000" stroke="none" 
	d="
M102.717537,150.065750 
	C102.824425,150.513962 102.627014,151.076385 102.201492,151.839417 
	C102.119995,151.419998 102.266617,150.799988 102.717537,150.065750 
z"/>
<path fill="#E2AD4A" opacity="1.000000" stroke="none" 
	d="
M100.737823,153.084137 
	C100.832863,153.538818 100.621277,154.097183 100.169403,154.841858 
	C100.096481,154.414719 100.263840,153.801270 100.737823,153.084137 
z"/>
<path fill="#E2AD4A" opacity="1.000000" stroke="none" 
	d="
M130.722992,120.014481 
	C130.538742,120.280853 130.037323,120.594658 129.237656,120.951988 
	C129.428223,120.684311 129.917007,120.373108 130.722992,120.014481 
z"/>
<path fill="#E2AD4A" opacity="1.000000" stroke="none" 
	d="
M111.776199,138.934708 
	C111.843697,139.134888 111.643166,139.444656 111.192986,139.880127 
	C111.131622,139.685303 111.319893,139.364792 111.776199,138.934708 
z"/>
<path fill="#E2AD4A" opacity="1.000000" stroke="none" 
	d="
M110.726952,140.001663 
	C110.823433,140.243332 110.649284,140.545395 110.216492,140.923279 
	C110.124008,140.686752 110.290161,140.374420 110.726952,140.001663 
z"/>
<path fill="#E2AD4A" opacity="1.000000" stroke="none" 
	d="
M109.715500,141.033005 
	C109.805832,141.271881 109.612122,141.586761 109.152000,142.010559 
	C109.067551,141.782654 109.249512,141.445816 109.715500,141.033005 
z"/>
<path fill="#E2AD4A" opacity="1.000000" stroke="none" 
	d="
M116.698776,133.007233 
	C116.785858,133.251862 116.582008,133.563950 116.110542,133.984787 
	C116.031242,133.753922 116.219551,133.414291 116.698776,133.007233 
z"/>
<path fill="#E2AD4A" opacity="1.000000" stroke="none" 
	d="
M107.757858,143.955231 
	C107.829552,144.163422 107.627823,144.465866 107.179825,144.892609 
	C107.117188,144.694443 107.300812,144.371948 107.757858,143.955231 
z"/>
<path fill="#E2AD4A" opacity="1.000000" stroke="none" 
	d="
M106.745758,145.011429 
	C106.814056,145.217636 106.614601,145.502335 106.179245,145.906921 
	C106.121559,145.714508 106.299774,145.402222 106.745758,145.011429 
z"/>
<path fill="#E2AD4A" opacity="1.000000" stroke="none" 
	d="
M103.749222,149.011414 
	C103.819901,149.220871 103.620468,149.506271 103.184807,149.911514 
	C103.125427,149.716690 103.302261,149.402023 103.749222,149.011414 
z"/>
<path fill="#E2AD4A" opacity="1.000000" stroke="none" 
	d="
M101.778183,152.054016 
	C101.828873,152.237350 101.623795,152.509933 101.196251,152.913116 
	C101.156670,152.743561 101.339546,152.443405 101.778183,152.054016 
z"/>
<path fill="#E2AD4A" opacity="1.000000" stroke="none" 
	d="
M99.742599,154.999146 
	C99.821289,155.222977 99.623306,155.512115 99.182175,155.911453 
	C99.114662,155.702591 99.290298,155.383530 99.742599,154.999146 
z"/>
<path fill="#E2AD4A" opacity="1.000000" stroke="none" 
	d="
M149.838425,105.182281 
	C149.923599,105.497086 149.683594,105.702866 149.173157,105.936615 
	C149.152954,105.722000 149.356476,105.424896 149.838425,105.182281 
z"/>
<path fill="#E2AD4A" opacity="1.000000" stroke="none" 
	d="
M125.714912,123.998672 
	C125.813919,124.247269 125.641663,124.549248 125.207756,124.918396 
	C125.111954,124.674400 125.277802,124.363228 125.714912,123.998672 
z"/>
<path fill="#E2AD4A" opacity="1.000000" stroke="none" 
	d="
M142.754181,110.032120 
	C142.820511,110.235039 142.623306,110.517189 142.191193,110.916840 
	C142.134399,110.726677 142.312546,110.419022 142.754181,110.032120 
z"/>
<path fill="#E2AD4A" opacity="1.000000" stroke="none" 
	d="
M138.734253,113.010635 
	C138.794220,113.226959 138.577225,113.510033 138.111877,113.905846 
	C138.061447,113.704857 138.259354,113.391121 138.734253,113.010635 
z"/>
<path fill="#E2AD4A" opacity="1.000000" stroke="none" 
	d="
M136.028778,115.168961 
	C136.060394,115.490723 135.781403,115.718239 135.231033,115.965775 
	C135.212494,115.682098 135.465332,115.378410 136.028778,115.168961 
z"/>
<path fill="#E2AD4A" opacity="1.000000" stroke="none" 
	d="
M134.720612,116.010132 
	C134.816208,116.256317 134.640961,116.555222 134.205597,116.923584 
	C134.113556,116.682968 134.281662,116.372902 134.720612,116.010132 
z"/>
<path fill="#E2AD4A" opacity="1.000000" stroke="none" 
	d="
M133.724426,117.003616 
	C133.807663,117.235352 133.618011,117.523697 133.179565,117.904480 
	C133.104355,117.684685 133.277954,117.372459 133.724426,117.003616 
z"/>
<path fill="#E2AD4A" opacity="1.000000" stroke="none" 
	d="
M132.711426,118.006371 
	C132.790176,118.237724 132.580231,118.543953 132.112549,118.973846 
	C132.044128,118.758759 132.233429,118.419998 132.711426,118.006371 
z"/>
<path fill="#E2AD4A" opacity="1.000000" stroke="none" 
	d="
M128.729218,120.983810 
	C128.827728,121.238853 128.647766,121.541786 128.203506,121.912819 
	C128.109726,121.664513 128.280243,121.348099 128.729218,120.983810 
z"/>
<path fill="#E2AD4A" opacity="1.000000" stroke="none" 
	d="
M127.706993,121.990311 
	C127.807968,122.240509 127.635239,122.541870 127.201454,122.913513 
	C127.104698,122.669693 127.268990,122.355583 127.706993,121.990311 
z"/>
<path fill="#E2AD4A" opacity="1.000000" stroke="none" 
	d="
M126.708939,122.991081 
	C126.811150,123.242569 126.638924,123.544632 126.206085,123.916916 
	C126.108482,123.671974 126.271492,123.356812 126.708939,122.991081 
z"/>
<path fill="#E2AD4A" opacity="1.000000" stroke="none" 
	d="
M113.813515,135.903320 
	C113.891289,136.138092 113.666962,136.496628 113.143066,136.981277 
	C113.066139,136.747299 113.288780,136.387192 113.813515,135.903320 
z"/>
<path fill="#E2AD4A" opacity="1.000000" stroke="none" 
	d="
M124.713699,124.999741 
	C124.814079,125.249046 124.643089,125.551842 124.209793,125.921463 
	C124.112434,125.676598 124.277390,125.364914 124.713699,124.999741 
z"/>
<path fill="#E2AD4A" opacity="1.000000" stroke="none" 
	d="
M123.718803,126.004303 
	C123.813782,126.245636 123.638763,126.544006 123.206131,126.917755 
	C123.115288,126.682533 123.282043,126.371948 123.718803,126.004303 
z"/>
<path fill="#E2AD4A" opacity="1.000000" stroke="none" 
	d="
M122.722458,127.004379 
	C122.815758,127.246010 122.638428,127.543472 122.203720,127.916153 
	C122.114830,127.680992 122.283325,127.370598 122.722458,127.004379 
z"/>
<path fill="#E2AD4A" opacity="1.000000" stroke="none" 
	d="
M121.721642,128.003067 
	C121.814034,128.243698 121.636726,128.541061 121.201843,128.912903 
	C121.113487,128.678192 121.282715,128.369003 121.721642,128.003067 
z"/>
<path fill="#E2AD4A" opacity="1.000000" stroke="none" 
	d="
M120.713959,128.995941 
	C120.815536,129.249466 120.645164,129.554214 120.210068,129.920044 
	C120.110901,129.669800 120.276451,129.358459 120.713959,128.995941 
z"/>
<path fill="#E2AD4A" opacity="1.000000" stroke="none" 
	d="
M119.709435,129.997223 
	C119.811081,130.248459 119.641159,130.551544 119.207474,130.919159 
	C119.108429,130.672165 119.273148,130.360626 119.709435,129.997223 
z"/>
<path fill="#E2AD4A" opacity="1.000000" stroke="none" 
	d="
M118.710953,130.993744 
	C118.810997,131.244659 118.637413,131.545578 118.202698,131.915161 
	C118.106827,131.670456 118.272072,131.357086 118.710953,130.993744 
z"/>
<path fill="#E2AD4A" opacity="1.000000" stroke="none" 
	d="
M117.710052,131.992615 
	C117.809525,132.242096 117.635170,132.542587 117.200363,132.914215 
	C117.105354,132.671448 117.270790,132.357529 117.710052,131.992615 
z"/>
</svg>