<svg version="1.1" id="Layer_1" xmlns="http://www.w3.org/2000/svg" xmlns:xlink="http://www.w3.org/1999/xlink" x="0px" y="0px"
	 width="100%" viewBox="0 0 500 500" enable-background="new 0 0 500 500" xml:space="preserve">
<path fill="#000000" opacity="1.000000" stroke="none" 
	d="
M341.000000,501.000000 
	C227.333359,501.000000 114.166718,501.000000 1.000061,501.000000 
	C1.000041,334.333405 1.000041,167.666794 1.000020,1.000150 
	C167.666565,1.000100 334.333130,1.000100 500.999756,1.000050 
	C500.999847,167.666519 500.999847,334.333038 500.999939,500.999786 
	C447.833344,501.000000 394.666656,501.000000 341.000000,501.000000 
M371.932129,175.461288 
	C371.620361,175.282745 371.308624,175.104202 370.997131,175.002777 
	C370.997131,175.002777 371.074249,175.002762 370.931793,174.462234 
	C370.619568,174.283600 370.307312,174.104965 369.994934,174.004822 
	C369.994934,174.004822 370.073395,174.005356 369.926270,173.466217 
	C369.615814,173.281952 369.305359,173.097672 368.992950,173.004868 
	C368.992950,173.004868 369.084412,173.007263 368.934845,172.463226 
	C368.621033,172.278564 368.307251,172.093887 367.994202,172.005936 
	C367.994202,172.005936 368.090942,172.005569 367.936096,171.463455 
	C367.621887,171.280777 367.307709,171.098099 366.994568,171.005829 
	C366.994568,171.005829 367.084991,171.005203 366.935577,170.462677 
	C366.622253,170.279800 366.308899,170.096924 365.996185,170.003937 
	C365.996185,170.003937 366.086090,170.003616 365.936371,169.463150 
	C365.623749,169.282318 365.311127,169.101486 365.001709,169.001190 
	C365.001709,169.001190 365.082245,168.997742 364.942902,168.455933 
	C364.630096,168.279205 364.317322,168.102463 364.004211,167.995926 
	C364.004211,167.995926 364.074402,167.994507 363.941681,167.454849 
	C363.630585,167.280869 363.319489,167.106888 363.005585,166.996399 
	C363.005585,166.996399 363.066986,166.980026 362.877686,166.373245 
	C362.484680,166.302185 362.091705,166.231125 361.169922,165.732697 
	C352.485870,160.816711 343.801849,155.900711 334.825775,150.340866 
	C333.814880,149.956345 332.803986,149.571823 331.537689,149.048386 
	C331.537689,149.048386 331.247009,149.053116 330.877747,148.342773 
	C323.922882,146.951675 316.967987,145.560593 309.584229,144.023499 
	C309.584229,144.023499 309.134125,143.972137 308.664581,143.220276 
	C303.867371,143.151535 299.065582,143.191132 294.274017,142.988892 
	C286.953552,142.679947 279.780792,143.226959 272.978394,145.957550 
	C272.978394,145.957550 272.979889,145.874069 272.181305,145.981979 
	C270.032166,146.670502 267.883057,147.359039 265.458893,148.027374 
	C265.458893,148.027374 265.219391,148.164093 264.481628,148.036255 
	C263.896606,148.374512 263.311615,148.712784 262.483276,149.028671 
	C262.483276,149.028671 262.272675,149.152557 261.522675,148.994644 
	C260.290405,149.659775 259.058105,150.324921 257.184113,151.291656 
	C244.618896,156.769394 233.640305,164.535538 223.984390,174.231491 
	C214.393585,183.862091 207.731873,195.314377 202.327408,208.120926 
	C202.191284,208.684662 202.055161,209.248398 201.772995,209.813248 
	C201.772995,209.813248 201.743042,209.956161 201.110275,210.353806 
	C200.555374,212.289841 200.000473,214.225876 199.437119,216.191422 
	C197.277954,216.191422 195.475616,216.191422 192.454468,216.110611 
	C179.518097,215.864883 167.313004,219.426453 155.905609,224.857391 
	C147.224762,228.990250 139.444717,235.015198 130.662231,240.096405 
	C130.420456,240.392746 130.178680,240.689087 129.996658,241.005310 
	C129.996658,241.005310 130.001801,240.942535 129.462555,241.076355 
	C129.283386,241.386337 129.104218,241.696335 129.005768,241.999329 
	C129.005768,241.999329 128.998993,241.918594 128.471878,242.075470 
	C128.298737,242.383301 128.125595,242.691132 128.008026,243.008026 
	C128.008026,243.008026 127.997734,242.952652 127.466454,243.081055 
	C127.294983,243.387085 127.123512,243.693115 127.008705,244.008408 
	C127.008705,244.008408 126.999992,243.951645 126.475433,244.096802 
	C126.294548,244.398819 126.113670,244.700851 126.002533,245.006088 
	C126.002533,245.006088 126.004707,244.936310 125.462402,245.067368 
	C125.286995,245.379593 125.111588,245.691803 125.005478,246.002121 
	C125.005478,246.002121 125.001511,245.932907 124.475510,246.087845 
	C124.297394,246.393402 124.119278,246.698944 124.007042,247.009277 
	C124.007042,247.009277 124.005051,246.943268 123.471649,247.082672 
	C123.295189,247.390488 123.118729,247.698303 123.009140,248.007294 
	C123.009140,248.007294 123.004875,247.940552 122.478142,248.091492 
	C122.298233,248.396149 122.118317,248.700790 122.006493,249.008789 
	C122.006493,249.008789 122.006378,248.940628 121.474640,249.085175 
	C121.296700,249.392380 121.118767,249.699570 121.008736,250.006577 
	C121.008736,250.006577 121.004738,249.938797 120.478134,250.091904 
	C120.300858,250.397842 120.123581,250.703781 120.012741,251.013092 
	C120.012741,251.013092 120.011391,250.946564 119.492821,251.102814 
	C119.322411,251.406036 119.152000,251.709274 119.016975,252.013016 
	C119.016975,252.013016 119.011078,251.978134 118.511803,252.142441 
	C118.321930,252.428101 118.132050,252.713760 117.998383,253.006989 
	C117.998383,253.006989 117.979271,252.953583 117.311279,253.167694 
	C115.882515,255.737289 114.453751,258.306885 112.381523,261.186432 
	C110.351944,264.855377 108.500832,268.637512 106.259117,272.171906 
	C99.681015,282.543182 96.140663,293.883118 95.058159,306.042755 
	C94.719368,309.848389 92.736137,311.890564 88.948280,312.016388 
	C77.240143,312.405426 67.962593,318.633667 59.357826,325.404327 
	C46.765434,335.312622 41.321598,349.192474 41.083492,364.984314 
	C40.875801,378.759186 44.374958,391.567108 53.699577,402.098328 
	C62.752922,412.323120 73.714554,419.289795 88.360268,420.718536 
	C90.181129,420.813568 92.001968,420.991486 93.822845,420.991760 
	C179.554321,421.004730 265.285797,421.003601 351.017273,420.994385 
	C353.343353,420.994141 355.669464,420.887665 358.780487,420.971008 
	C359.839172,420.923157 360.897827,420.875305 362.893188,420.973358 
	C368.977295,420.633728 375.061371,420.294098 381.518524,419.948639 
	C381.518524,419.948639 381.868530,419.819458 382.607819,419.977325 
	C383.457123,419.644928 384.306427,419.312561 385.940002,418.981049 
	C403.161041,415.745300 416.516083,396.037659 413.906006,376.368164 
	C411.780151,360.347351 397.920929,342.848297 375.869019,341.648712 
	C373.144989,333.985931 370.500275,326.546173 367.969055,318.423401 
	C368.668365,317.301300 369.367645,316.179169 370.006348,314.999512 
	C370.006348,314.999512 370.053070,315.068298 370.705444,314.901947 
	C371.484406,313.649506 372.263336,312.397034 373.677032,310.819397 
	C374.561157,309.321747 375.184143,307.565399 376.370880,306.367584 
	C385.497375,297.155975 389.893097,285.263824 394.566986,273.662506 
	C398.895447,262.918732 398.943390,251.432922 398.861053,239.555389 
	C397.910339,234.323425 396.959656,229.091476 396.016479,223.466034 
	C396.016479,223.466034 396.071381,223.076355 396.679871,222.710892 
	C395.799561,219.784744 394.919250,216.858582 394.015930,213.992783 
	C394.015930,213.992783 394.079620,213.982040 393.995575,213.241135 
	C393.320465,211.749542 392.645386,210.257950 391.969360,208.456039 
	C391.969360,208.456039 391.832367,208.177582 391.979675,207.432785 
	C391.298431,206.201202 390.617157,204.969620 389.951050,203.458786 
	C389.951050,203.458786 389.816742,203.213470 389.913757,202.613708 
	C389.610657,202.376038 389.307556,202.138382 388.989136,202.008453 
	C388.989136,202.008453 389.096771,202.024506 388.999878,201.359024 
	C388.660248,200.844696 388.320618,200.330368 387.983490,199.534470 
	C387.983490,199.534470 387.842407,199.290741 387.948212,198.615326 
	C387.615326,198.325424 387.282440,198.035522 386.968414,197.507965 
	C386.968414,197.507965 386.839447,197.307434 386.950287,196.675476 
	C386.639648,196.426331 386.329010,196.177185 386.011627,195.992584 
	C386.011627,195.992584 386.075317,195.980057 386.015167,195.281219 
	C385.356476,194.166550 384.697784,193.051865 384.012177,191.995316 
	C384.012177,191.995316 384.073639,191.977249 384.016479,191.307281 
	C383.355194,190.514023 382.693878,189.720764 382.010040,188.991104 
	C382.010040,188.991104 382.076324,189.003845 381.910553,188.442261 
	C381.594391,188.220352 381.278229,187.998444 380.970734,187.507980 
	C380.970734,187.507980 380.836853,187.274994 380.938660,186.652817 
	C380.629120,186.408768 380.319611,186.164734 380.001007,185.996262 
	C380.001007,185.996262 380.076630,186.005020 379.916260,185.450439 
	C379.600983,185.240692 379.285736,185.030945 378.961823,184.513901 
	C378.961823,184.513901 378.825806,184.238220 378.944733,183.629227 
	C378.636017,183.395233 378.327271,183.161255 378.007721,182.992630 
	C378.007721,182.992630 378.073914,182.990601 377.943329,182.447769 
	C377.630676,182.272293 377.317993,182.096817 377.002289,181.994873 
	C377.002289,181.994873 377.075836,181.997635 376.932251,181.457947 
	C376.620697,181.277603 376.309174,181.097244 375.995850,181.003036 
	C375.995850,181.003036 376.082001,181.005066 375.923767,180.447006 
	C375.606964,180.236679 375.290161,180.026352 374.949066,179.480957 
	C374.949066,179.480957 374.804901,179.177490 374.906494,178.593445 
	C374.604919,178.370041 374.303345,178.146622 373.997040,178.002930 
	C373.997040,178.002930 374.076721,178.007919 373.917114,177.476852 
	C373.609894,177.291656 373.302704,177.106476 372.997803,177.004028 
	C372.997803,177.004028 373.080566,177.001953 372.934082,176.462723 
	C372.622223,176.283691 372.310333,176.104645 371.998749,176.001205 
	C371.998749,176.001205 372.074341,176.001083 371.932129,175.461288 
M408.997650,182.004242 
	C408.997650,182.004242 408.926880,182.002335 409.062408,182.544418 
	C409.374359,182.723236 409.686340,182.902054 409.990387,183.013977 
	C409.990387,183.013977 409.925842,183.033234 410.207855,183.730408 
	C415.213348,187.042206 418.852478,186.822052 423.494049,182.965714 
	C423.494049,182.965714 423.685699,182.845047 424.376007,182.967407 
	C424.673248,182.628006 424.970520,182.288605 425.481232,181.971008 
	C425.481232,181.971008 425.652710,181.842041 426.348816,181.953766 
	C426.654175,181.618210 426.959534,181.282654 427.708221,180.800430 
	C428.043091,180.478867 428.377930,180.157303 429.342163,179.961212 
	C429.586029,179.647217 429.829865,179.333206 430.009003,179.012695 
	C430.009003,179.012695 430.022858,179.076233 430.677063,179.007431 
	C431.458344,178.377426 432.239624,177.747437 433.719849,176.996429 
	C438.626190,173.537582 441.164307,166.885040 438.867096,163.406067 
	C435.875183,158.874939 428.252686,156.355820 423.884735,159.503372 
	C420.621063,161.855209 417.191498,164.163345 413.504242,165.690369 
	C409.543915,167.330475 407.940918,170.265717 406.271240,174.328079 
	C406.835846,176.569611 407.400482,178.811142 407.997528,181.003448 
	C407.997528,181.003448 407.938751,181.007385 408.075165,181.540466 
	C408.381897,181.718628 408.688629,181.896790 408.997650,182.004242 
M185.554443,182.940948 
	C185.723099,182.633850 185.891769,182.326736 185.997757,182.008026 
	C185.997757,182.008026 186.046783,182.052322 186.738892,181.780151 
	C188.252136,178.204590 190.950623,174.662079 187.005737,171.000549 
	C187.005737,171.000549 187.076324,170.976913 187.013718,170.309875 
	C186.360260,169.523392 185.706802,168.736893 184.999512,167.997406 
	C184.999512,167.997406 185.055695,167.960617 184.875854,167.345535 
	C184.477661,167.283127 184.079453,167.220734 183.472046,167.024765 
	C183.472046,167.024765 183.224670,167.045410 182.972794,166.523239 
	C182.653793,166.332642 182.334793,166.142029 182.004196,166.001480 
	C182.004196,166.001480 182.039597,165.960175 181.825592,165.297272 
	C180.555252,164.834869 179.284927,164.372467 178.003174,163.988754 
	C178.003174,163.988754 178.079422,163.966217 177.807785,163.323380 
	C176.212891,162.523193 174.617996,161.723007 173.002792,160.993637 
	C173.002792,160.993637 173.075989,160.985291 172.879700,160.396866 
	C172.499161,160.324371 172.118637,160.251877 171.496231,160.044998 
	C171.496231,160.044998 171.219620,160.050568 170.842621,159.320374 
	C167.883560,159.174942 164.924500,159.029510 161.349960,158.994034 
	C160.939774,159.059525 160.529602,159.125031 159.396378,159.028336 
	C158.238083,160.342575 157.079803,161.656815 155.992081,163.001419 
	C155.992081,163.001419 155.960007,162.931931 155.265335,163.245056 
	C154.221832,166.354431 153.501373,169.435898 156.036102,172.495697 
	C156.036102,172.495697 156.167389,172.720596 156.050156,173.344070 
	C156.362961,173.581421 156.675781,173.818771 156.999695,174.000061 
	C156.999695,174.000061 156.948715,174.025879 157.184799,174.652756 
	C158.244827,175.382126 159.304855,176.111496 160.536591,176.981644 
	C160.536591,176.981644 160.756882,176.953720 161.063705,177.547134 
	C161.467102,177.642075 161.870499,177.737030 162.498367,177.963287 
	C162.498367,177.963287 162.758270,177.954514 163.061584,178.553528 
	C163.467438,178.647461 163.873276,178.741394 164.494858,178.964142 
	C164.494858,178.964142 164.745941,178.955200 165.000290,179.491486 
	C165.328491,179.680603 165.656708,179.869736 165.996460,179.998764 
	C165.996460,179.998764 165.942688,180.028534 166.124008,180.634552 
	C166.515274,180.701187 166.906525,180.767838 167.511520,180.966492 
	C167.511520,180.966492 167.762390,180.953278 168.054138,181.555450 
	C168.456512,181.646149 168.858902,181.736847 169.499176,181.957458 
	C169.499176,181.957458 169.770203,181.957840 170.055557,182.596649 
	C171.029877,183.090637 172.004181,183.584625 173.001434,184.007736 
	C173.001434,184.007736 172.933609,184.038239 173.242737,184.748886 
	C176.748535,186.414764 180.161041,186.908569 183.483429,183.991455 
	C183.483429,183.991455 183.628128,183.868607 184.285156,183.978394 
	C184.543411,183.662140 184.801666,183.345886 185.002747,182.999893 
	C185.002747,182.999893 185.020645,183.061615 185.554443,182.940948 
M359.000214,132.000351 
	C359.000214,132.000351 358.933563,132.004181 359.065765,132.541153 
	C359.374786,132.716385 359.683838,132.891617 359.996368,133.003143 
	C359.996368,133.003143 359.934113,133.017136 360.124329,133.620026 
	C360.514832,133.691330 360.905304,133.762619 361.498444,133.959259 
	C361.498444,133.959259 361.735809,133.938309 362.178711,134.681107 
	C364.842743,134.451675 367.506775,134.222260 370.776093,133.726578 
	C376.571747,128.199463 380.205811,121.315994 383.814606,113.611557 
	C383.221954,111.052826 382.629272,108.494095 382.008453,105.992477 
	C382.008453,105.992477 382.071869,105.998299 381.924286,105.463509 
	C381.615204,105.282913 381.306091,105.102325 380.999725,105.002411 
	C380.999725,105.002411 381.080414,104.999870 380.936829,104.461235 
	C380.625519,104.283745 380.314240,104.106255 380.001892,103.998177 
	C380.001892,103.998177 380.071289,103.996162 379.933899,103.457855 
	C379.623230,103.281761 379.312531,103.105667 379.002716,102.992500 
	C379.002716,102.992500 379.061218,102.969276 378.724976,102.271393 
	C375.321381,100.637024 371.984283,99.934769 368.994659,102.994545 
	C368.994659,102.994545 369.017212,102.913872 368.512085,103.057793 
	C368.332306,103.341835 368.152557,103.625877 367.417419,104.108711 
	C366.931763,104.707993 366.446136,105.307274 365.401123,106.119598 
	C364.997131,106.750023 364.593140,107.380455 364.034729,108.475899 
	C364.034729,108.475899 363.938751,108.956398 363.468170,109.087708 
	C363.113495,109.279747 363.019653,109.559364 362.984650,110.455841 
	C362.661316,110.906700 362.337952,111.357559 361.360382,112.124054 
	C360.212952,114.406464 359.065552,116.688866 357.982544,118.987671 
	C357.982544,118.987671 357.981934,118.921188 357.370209,119.105919 
	C357.300049,119.498909 357.229919,119.891899 357.038757,120.489731 
	C357.038757,120.489731 357.061890,120.726532 356.310455,121.166389 
	C356.858185,124.462517 357.405884,127.758652 357.999237,131.013580 
	C357.999237,131.013580 357.937805,131.016495 358.072632,131.548416 
	C358.380188,131.721252 358.687775,131.894073 359.000214,132.000351 
M306.018829,85.983376 
	C306.018829,85.983376 306.087341,85.972992 306.005920,85.243080 
	C305.321777,84.886452 304.637604,84.529831 303.266846,83.799629 
	C300.120331,83.253075 296.973846,82.706520 293.113708,82.018906 
	C288.903229,82.844345 287.189667,85.858315 287.042053,89.692650 
	C286.819427,95.475121 286.663300,101.298630 287.114441,107.054886 
	C287.409790,110.823799 288.325134,114.837959 292.990051,116.013687 
	C292.990051,116.013687 292.920929,116.002754 293.064972,116.525658 
	C293.375824,116.625435 293.686707,116.725212 294.839325,116.970627 
	C300.246002,118.113312 303.331207,114.849937 306.834137,110.665115 
	C306.910553,103.419327 306.986969,96.173531 306.991394,88.379959 
	C306.940643,88.016762 306.889923,87.653564 306.966156,86.655457 
	C306.649353,86.408348 306.332581,86.161240 306.018829,85.983376 
M427.456024,331.044373 
	C431.937866,332.556152 436.603271,330.656982 439.171417,326.275299 
	C441.209900,322.797272 440.380493,315.917175 437.031036,313.708771 
	C432.118073,310.469543 426.715210,307.982605 421.710358,304.870697 
	C416.894623,301.876404 411.212280,302.506989 407.690826,306.852783 
	C404.716339,310.523621 405.411926,318.091125 409.594971,320.920197 
	C415.056793,324.614044 420.951477,327.667847 427.456024,331.044373 
M457.477234,237.029633 
	C455.677277,236.025940 453.919434,234.258774 452.069702,234.156708 
	C445.620544,233.800827 439.128418,233.789917 432.674469,234.100937 
	C428.124817,234.320160 424.580109,238.973038 423.920502,243.609161 
	C423.336212,247.716110 427.803253,253.573105 431.225006,253.915298 
	C436.265656,254.419388 441.439941,255.444870 446.361023,254.784821 
	C451.704193,254.068130 459.050781,254.984619 460.187408,247.063766 
	C460.612213,244.103134 458.742859,240.813293 457.477234,237.029633 
M221.288315,102.001762 
	C212.347687,102.040436 207.648300,109.401970 211.789780,117.227776 
	C213.861816,121.143150 216.590851,124.705383 218.899002,128.502548 
	C222.402557,134.266251 228.621399,137.211731 232.805191,134.540405 
	C237.964188,131.246445 240.157364,125.758377 236.899734,118.899879 
	C235.106155,115.123711 233.072784,111.308876 230.390488,108.155388 
	C228.222610,105.606697 224.921799,104.021645 221.288315,102.001762 
z"/>
<path fill="#1BB5EC" opacity="1.000000" stroke="none" 
	d="
M131.263901,240.198349 
	C139.444717,235.015198 147.224762,228.990250 155.905609,224.857391 
	C167.313004,219.426453 179.518097,215.864883 193.105042,216.024170 
	C205.501450,218.065674 217.646164,218.950226 228.914902,222.565308 
	C257.517029,231.741028 277.718384,250.915176 290.053833,278.280640 
	C291.433380,281.341064 292.703278,282.930573 296.617462,282.550537 
	C324.996185,279.794952 347.168884,290.482910 363.263214,313.981171 
	C364.548492,315.857727 366.313477,317.405731 367.855530,319.106415 
	C370.500275,326.546173 373.144989,333.985931 375.869019,341.648712 
	C397.920929,342.848297 411.780151,360.347351 413.906006,376.368164 
	C416.516083,396.037659 403.161041,415.745300 385.199493,418.975464 
	C383.595520,419.253082 382.732025,419.536285 381.868530,419.819458 
	C381.868530,419.819458 381.518524,419.948639 380.850372,419.945312 
	C374.106995,420.237152 368.031738,420.532318 361.956512,420.827454 
	C360.897827,420.875305 359.839172,420.923157 358.026428,420.704407 
	C354.455719,420.289368 351.639099,420.012054 348.822418,420.011261 
	C261.833588,419.986725 174.844742,419.989258 87.855896,419.987610 
	C73.714554,419.289795 62.752922,412.323120 53.699577,402.098328 
	C44.374958,391.567108 40.875801,378.759186 41.083492,364.984314 
	C41.321598,349.192474 46.765434,335.312622 59.357826,325.404327 
	C67.962593,318.633667 77.240143,312.405426 88.948280,312.016388 
	C92.736137,311.890564 94.719368,309.848389 95.058159,306.042755 
	C96.140663,293.883118 99.681015,282.543182 106.259117,272.171906 
	C108.500832,268.637512 110.351944,264.855377 113.034157,260.969696 
	C115.117615,258.153168 116.548439,255.553375 117.979271,252.953583 
	C117.979271,252.953583 117.998383,253.006989 118.198944,252.891769 
	C118.603371,252.510406 118.807228,252.244278 119.011078,251.978134 
	C119.011078,251.978134 119.016975,252.013016 119.209282,251.875107 
	C119.604858,251.473663 119.808128,251.210114 120.011398,250.946564 
	C120.011391,250.946564 120.012741,251.013092 120.206833,250.888245 
	C120.602196,250.488510 120.803467,250.213654 121.004738,249.938797 
	C121.004738,249.938797 121.008736,250.006577 121.197685,249.878296 
	C121.593216,249.480209 121.799789,249.210419 122.006378,248.940628 
	C122.006378,248.940628 122.006493,249.008789 122.200653,248.885254 
	C122.598160,248.488007 122.801521,248.214279 123.004875,247.940552 
	C123.004875,247.940552 123.009140,248.007294 123.199738,247.880829 
	C123.595238,247.483994 123.800140,247.213623 124.005051,246.943268 
	C124.005051,246.943268 124.007042,247.009277 124.203041,246.885376 
	C124.599861,246.485275 124.800682,246.209091 125.001511,245.932907 
	C125.001511,245.932907 125.005478,246.002121 125.195465,245.875977 
	C125.591873,245.478668 125.798294,245.207489 126.004715,244.936310 
	C126.004707,244.936310 126.002533,245.006088 126.195938,244.885223 
	C126.592896,244.493469 126.796448,244.222565 127.000000,243.951645 
	C126.999992,243.951645 127.008705,244.008408 127.210266,243.891418 
	C127.607132,243.500504 127.802429,243.226578 127.997726,242.952652 
	C127.997734,242.952652 128.008026,243.008026 128.210831,242.884460 
	C128.608749,242.480133 128.803864,242.199356 128.998993,241.918594 
	C128.998993,241.918594 129.005768,241.999329 129.182663,241.866394 
	C129.573639,241.469818 129.787720,241.206177 130.001801,240.942535 
	C130.001801,240.942535 129.996658,241.005310 130.222916,240.933456 
	C130.720749,240.640518 130.992325,240.419434 131.263901,240.198349 
z"/>
<path fill="#FEC107" opacity="1.000000" stroke="none" 
	d="
M398.186707,239.994598 
	C398.943390,251.432922 398.895447,262.918732 394.566986,273.662506 
	C389.893097,285.263824 385.497375,297.155975 376.370880,306.367584 
	C375.184143,307.565399 374.561157,309.321747 373.066528,311.128265 
	C371.655060,312.647522 370.854065,313.857910 370.053070,315.068298 
	C370.053070,315.068298 370.006348,314.999512 369.653656,314.980530 
	C367.518738,313.757782 365.152435,312.943268 364.048676,311.287262 
	C356.661957,300.204987 346.715332,292.109467 334.901215,286.396088 
	C323.310150,280.790619 310.845825,279.173218 298.064972,280.191406 
	C294.546295,280.471741 292.620239,279.157013 291.208405,275.920044 
	C285.271729,262.308838 276.515869,250.679352 265.274780,241.033417 
	C248.770508,226.871140 230.127258,217.242203 207.999863,216.102844 
	C203.349625,215.863388 201.168610,214.734848 201.743042,209.956161 
	C201.743042,209.956161 201.772995,209.813248 202.085815,209.795227 
	C202.562759,209.155869 202.726868,208.534515 202.890961,207.913177 
	C207.731873,195.314377 214.393585,183.862091 223.984390,174.231491 
	C233.640305,164.535538 244.618896,156.769394 257.878937,151.167389 
	C259.806732,150.412933 261.039703,149.782745 262.272675,149.152557 
	C262.272675,149.152557 262.483276,149.028671 262.944794,149.027039 
	C264.010681,148.738312 264.615021,148.451202 265.219391,148.164093 
	C265.219391,148.164093 265.458893,148.027374 266.038574,148.042694 
	C268.738800,147.330032 270.859344,146.602051 272.979889,145.874069 
	C272.979889,145.874069 272.978394,145.957550 273.385712,145.977142 
	C285.573395,145.321854 297.353760,144.646988 309.134125,143.972137 
	C309.134125,143.972137 309.584229,144.023499 310.104034,144.302490 
	C317.498230,146.072037 324.372620,147.562576 331.247009,149.053116 
	C331.247009,149.053116 331.537689,149.048386 331.836365,149.411499 
	C333.129272,150.177979 334.123535,150.581345 335.117798,150.984726 
	C343.801849,155.900711 352.485870,160.816711 361.625488,166.143707 
	C362.409698,166.696503 362.738342,166.838257 363.066986,166.980026 
	C363.066986,166.980026 363.005585,166.996399 363.120514,167.199097 
	C363.515106,167.599380 363.794739,167.796936 364.074402,167.994507 
	C364.074402,167.994507 364.004211,167.995926 364.120575,168.196503 
	C364.518707,168.597290 364.800476,168.797516 365.082245,168.997742 
	C365.082245,168.997742 365.001709,169.001190 365.128723,169.189667 
	C365.532501,169.586624 365.809296,169.795120 366.086090,170.003616 
	C366.086090,170.003616 365.996185,170.003937 366.125305,170.188507 
	C366.531311,170.583786 366.808136,170.794495 367.084991,171.005203 
	C367.084991,171.005203 366.994568,171.005829 367.126587,171.188705 
	C367.536072,171.582916 367.813507,171.794235 368.090942,172.005569 
	C368.090942,172.005569 367.994202,172.005936 368.127258,172.184998 
	C368.535004,172.578461 368.809692,172.792862 369.084412,173.007263 
	C369.084412,173.007263 368.992950,173.004868 369.120117,173.189682 
	C369.522644,173.584778 369.798035,173.795074 370.073395,174.005356 
	C370.073395,174.005356 369.994934,174.004822 370.118042,174.196732 
	C370.518829,174.593353 370.796539,174.798065 371.074249,175.002762 
	C371.074249,175.002762 370.997131,175.002777 371.119080,175.195740 
	C371.518829,175.592819 371.796570,175.796951 372.074341,176.001083 
	C372.074341,176.001083 371.998749,176.001205 372.120117,176.196304 
	C372.521179,176.594925 372.800873,176.798447 373.080566,177.001953 
	C373.080566,177.001953 372.997803,177.004028 373.126404,177.189758 
	C373.528870,177.586304 373.802795,177.797119 374.076721,178.007919 
	C374.076721,178.007919 373.997040,178.002930 374.085876,178.199066 
	C374.384796,178.655960 374.594849,178.916733 374.804901,179.177490 
	C374.804901,179.177490 374.949066,179.480957 375.090210,179.895813 
	C375.514862,180.542130 375.798431,180.773605 376.082001,181.005066 
	C376.082001,181.005066 375.995850,181.003036 376.121643,181.190063 
	C376.523590,181.583923 376.799713,181.790771 377.075836,181.997635 
	C377.075836,181.997635 377.002289,181.994873 377.114807,182.196136 
	C377.509521,182.595139 377.791718,182.792862 378.073914,182.990601 
	C378.073914,182.990601 378.007721,182.992630 378.088074,183.210175 
	C378.387512,183.697891 378.606659,183.968063 378.825806,184.238220 
	C378.825806,184.238220 378.961823,184.513901 379.097900,184.911621 
	C379.514862,185.541245 379.795746,185.773132 380.076630,186.005020 
	C380.076630,186.005020 380.001007,185.996262 380.086914,186.214203 
	C380.394135,186.713089 380.615479,186.994049 380.836853,187.274994 
	C380.836853,187.274994 380.970734,187.507980 381.094940,187.896301 
	C381.504883,188.524353 381.790588,188.764099 382.076324,189.003845 
	C382.076324,189.003845 382.010040,188.991104 382.013336,189.306763 
	C382.702301,190.407364 383.387970,191.192307 384.073639,191.977234 
	C384.073639,191.977249 384.012177,191.995316 383.993500,192.334198 
	C384.674988,193.775406 385.375153,194.877731 386.075317,195.980057 
	C386.075317,195.980057 386.011627,195.992584 386.084106,196.224533 
	C386.384186,196.740128 386.611816,197.023773 386.839447,197.307434 
	C386.839447,197.307434 386.968414,197.507965 387.046082,197.917480 
	C387.363281,198.648239 387.602844,198.969482 387.842407,199.290741 
	C387.842407,199.290741 387.983490,199.534470 388.038605,199.990967 
	C388.428070,200.973145 388.762421,201.498825 389.096771,202.024506 
	C389.096771,202.024506 388.989136,202.008453 389.094910,202.194183 
	C389.406006,202.657776 389.611389,202.935623 389.816742,203.213470 
	C389.816742,203.213470 389.951050,203.458786 389.937683,203.979279 
	C390.560333,205.725708 391.196350,206.951645 391.832367,208.177582 
	C391.832367,208.177582 391.969360,208.456039 391.960144,209.018494 
	C392.660461,211.047974 393.370056,212.514999 394.079620,213.982040 
	C394.079620,213.982040 394.015930,213.992783 393.985229,214.380890 
	C394.660126,217.538116 395.365753,220.307236 396.071381,223.076355 
	C396.071381,223.076355 396.016479,223.466034 396.012512,224.125122 
	C396.734619,229.854324 397.460663,234.924469 398.186707,239.994598 
z"/>
<path fill="#FAC111" opacity="1.000000" stroke="none" 
	d="
M427.057983,331.020691 
	C420.951477,327.667847 415.056793,324.614044 409.594971,320.920197 
	C405.411926,318.091125 404.716339,310.523621 407.690826,306.852783 
	C411.212280,302.506989 416.894623,301.876404 421.710358,304.870697 
	C426.715210,307.982605 432.118073,310.469543 437.031036,313.708771 
	C440.380493,315.917175 441.209900,322.797272 439.171417,326.275299 
	C436.603271,330.656982 431.937866,332.556152 427.057983,331.020691 
z"/>
<path fill="#FBC10E" opacity="1.000000" stroke="none" 
	d="
M457.698364,237.351593 
	C458.742859,240.813293 460.612213,244.103134 460.187408,247.063766 
	C459.050781,254.984619 451.704193,254.068130 446.361023,254.784821 
	C441.439941,255.444870 436.265656,254.419388 431.225006,253.915298 
	C427.803253,253.573105 423.336212,247.716110 423.920502,243.609161 
	C424.580109,238.973038 428.124817,234.320160 432.674469,234.100937 
	C439.128418,233.789917 445.620544,233.800827 452.069702,234.156708 
	C453.919434,234.258774 455.677277,236.025940 457.698364,237.351593 
z"/>
<path fill="#FBC10E" opacity="1.000000" stroke="none" 
	d="
M221.705933,102.005447 
	C224.921799,104.021645 228.222610,105.606697 230.390488,108.155388 
	C233.072784,111.308876 235.106155,115.123711 236.899734,118.899879 
	C240.157364,125.758377 237.964188,131.246445 232.805191,134.540405 
	C228.621399,137.211731 222.402557,134.266251 218.899002,128.502548 
	C216.590851,124.705383 213.861816,121.143150 211.789780,117.227776 
	C207.648300,109.401970 212.347687,102.040436 221.705933,102.005447 
z"/>
<path fill="#C9C655" opacity="1.000000" stroke="none" 
	d="
M201.426666,210.154984 
	C201.168610,214.734848 203.349625,215.863388 207.999863,216.102844 
	C230.127258,217.242203 248.770508,226.871140 265.274780,241.033417 
	C276.515869,250.679352 285.271729,262.308838 291.208405,275.920044 
	C292.620239,279.157013 294.546295,280.471741 298.064972,280.191406 
	C310.845825,279.173218 323.310150,280.790619 334.901215,286.396088 
	C346.715332,292.109467 356.661957,300.204987 364.048676,311.287262 
	C365.152435,312.943268 367.518738,313.757782 369.683960,315.009338 
	C369.367645,316.179169 368.668365,317.301300 367.912292,318.764893 
	C366.313477,317.405731 364.548492,315.857727 363.263214,313.981171 
	C347.168884,290.482910 324.996185,279.794952 296.617462,282.550537 
	C292.703278,282.930573 291.433380,281.341064 290.053833,278.280640 
	C277.718384,250.915176 257.517029,231.741028 228.914902,222.565308 
	C217.646164,218.950226 205.501450,218.065674 193.714447,216.064575 
	C195.475616,216.191422 197.277954,216.191422 199.437119,216.191422 
	C200.000473,214.225876 200.555374,212.289841 201.426666,210.154984 
z"/>
<path fill="#FDC108" opacity="1.000000" stroke="none" 
	d="
M425.652710,181.842041 
	C425.652710,181.842041 425.481232,181.971008 425.075928,182.042084 
	C424.342285,182.357132 424.014008,182.601089 423.685699,182.845047 
	C423.685699,182.845047 423.494049,182.965714 422.946167,182.962372 
	C418.240784,182.983749 414.083313,183.008484 409.925842,183.033234 
	C409.925842,183.033234 409.990387,183.013977 409.873901,182.815277 
	C409.480591,182.411819 409.203735,182.207077 408.926880,182.002335 
	C408.926880,182.002335 408.997650,182.004242 408.884979,181.804321 
	C408.494446,181.405396 408.216614,181.206390 407.938751,181.007385 
	C407.938751,181.007385 407.997528,181.003448 408.019836,180.622971 
	C407.672607,178.146881 407.303009,176.051270 406.933411,173.955673 
	C407.940918,170.265717 409.543915,167.330475 413.504242,165.690369 
	C417.191498,164.163345 420.621063,161.855209 423.884735,159.503372 
	C428.252686,156.355820 435.875183,158.874939 438.867096,163.406067 
	C441.164307,166.885040 438.626190,173.537582 433.035339,177.067596 
	C431.574829,177.784576 430.798828,178.430405 430.022858,179.076233 
	C430.022858,179.076233 430.009003,179.012695 429.778564,179.081268 
	C429.269653,179.378464 428.991211,179.607101 428.712769,179.835754 
	C428.377930,180.157303 428.043091,180.478867 427.181396,180.951019 
	C426.320618,181.348404 425.986664,181.595230 425.652710,181.842041 
z"/>
<path fill="#FDC108" opacity="1.000000" stroke="none" 
	d="
M383.153107,114.001579 
	C380.205811,121.315994 376.571747,128.199463 370.006348,133.854919 
	C366.736328,133.968277 364.236053,133.953293 361.735809,133.938309 
	C361.735809,133.938309 361.498444,133.959259 361.204468,133.703598 
	C360.585022,133.304337 360.259552,133.160736 359.934113,133.017136 
	C359.934113,133.017136 359.996368,133.003143 359.881897,132.800964 
	C359.489502,132.400589 359.211517,132.202377 358.933563,132.004181 
	C358.933563,132.004181 359.000214,132.000351 358.887573,131.798859 
	C358.495850,131.403748 358.216827,131.210129 357.937805,131.016495 
	C357.937805,131.016495 357.999237,131.013580 358.021240,130.602997 
	C357.716095,127.037117 357.389008,123.881821 357.061890,120.726532 
	C357.061890,120.726532 357.038757,120.489731 357.293640,120.195068 
	C357.692963,119.573990 357.837433,119.247581 357.981934,118.921188 
	C357.981934,118.921188 357.982544,118.987671 358.307434,118.922348 
	C359.759735,116.507492 360.887146,114.157944 362.014587,111.808411 
	C362.337952,111.357559 362.661316,110.906700 363.235779,110.049973 
	C363.672760,109.438026 363.823364,109.208794 363.938751,108.956398 
	C363.938751,108.956398 364.034729,108.475899 364.393036,108.144348 
	C365.154388,107.177391 365.557434,106.541985 365.960510,105.906563 
	C366.446136,105.307274 366.931763,104.707993 367.889832,103.867905 
	C368.614410,103.420464 368.832764,103.182724 369.017212,102.913872 
	C369.017212,102.913872 368.994659,102.994545 369.415710,103.007744 
	C372.911591,103.003723 375.986389,102.986504 379.061218,102.969284 
	C379.061218,102.969276 379.002716,102.992500 379.118286,103.194855 
	C379.512970,103.596855 379.792145,103.796509 380.071289,103.996162 
	C380.071289,103.996162 380.001892,103.998177 380.120239,104.197617 
	C380.519165,104.597984 380.799805,104.798927 381.080414,104.999863 
	C381.080414,104.999870 380.999725,105.002411 381.126160,105.188499 
	C381.525696,105.582489 381.798798,105.790390 382.071869,105.998299 
	C382.071869,105.998299 382.008453,105.992477 381.988098,106.378860 
	C382.362854,109.177353 382.757965,111.589470 383.153107,114.001579 
z"/>
<path fill="#FDC108" opacity="1.000000" stroke="none" 
	d="
M293.827332,82.159973 
	C296.973846,82.706520 300.120331,83.253075 303.720703,84.265678 
	C304.812164,85.145485 305.449738,85.559235 306.087341,85.972992 
	C306.087341,85.972992 306.018829,85.983376 306.091431,86.210762 
	C306.389069,86.722221 306.614105,87.006294 306.839172,87.290367 
	C306.889923,87.653564 306.940643,88.016762 306.801331,88.973923 
	C306.447906,96.720734 306.284607,103.873573 306.121277,111.026421 
	C303.331207,114.849937 300.246002,118.113312 294.267517,116.725304 
	C293.474152,116.261330 293.215881,116.102257 292.920929,116.002754 
	C292.920929,116.002754 292.990051,116.013687 292.954010,115.691368 
	C285.451355,103.623024 285.772614,91.890930 293.827332,82.159973 
z"/>
<path fill="#FDC108" opacity="1.000000" stroke="none" 
	d="
M162.758270,177.954514 
	C162.758270,177.954514 162.498367,177.963287 162.167526,177.694443 
	C161.476746,177.268311 161.116821,177.111008 160.756882,176.953720 
	C160.756882,176.953720 160.536591,176.981644 160.341156,176.570312 
	C159.080048,175.447952 158.014389,174.736908 156.948715,174.025879 
	C156.948715,174.025879 156.999695,174.000061 156.922485,173.771118 
	C156.619308,173.268311 156.393341,172.994461 156.167389,172.720596 
	C156.167389,172.720596 156.036102,172.495697 156.041168,171.892731 
	C156.017502,168.503830 155.988754,165.717880 155.960007,162.931931 
	C155.960007,162.931931 155.992081,163.001419 156.289215,162.944977 
	C157.764023,161.655853 158.941711,160.423187 160.119415,159.190521 
	C160.529602,159.125031 160.939774,159.059525 162.082184,158.951065 
	C165.616150,159.288925 168.417877,159.669739 171.219620,160.050568 
	C171.219620,160.050568 171.496231,160.044998 171.807526,160.300369 
	C172.437881,160.698929 172.756927,160.842117 173.075989,160.985291 
	C173.075989,160.985291 173.002792,160.993637 173.074219,161.318237 
	C174.790253,162.417297 176.434830,163.191757 178.079422,163.966217 
	C178.079422,163.966217 178.003174,163.988754 178.116867,164.287903 
	C179.500244,165.044754 180.769913,165.502472 182.039597,165.960175 
	C182.039597,165.960175 182.004196,166.001480 182.137299,166.228928 
	C182.588501,166.652725 182.906586,166.849060 183.224670,167.045410 
	C183.224670,167.045410 183.472046,167.024765 183.765076,167.293457 
	C184.390640,167.694977 184.723160,167.827805 185.055695,167.960617 
	C185.055695,167.960617 184.999512,167.997406 184.988892,168.318787 
	C185.677612,169.419083 186.376968,170.197998 187.076324,170.976913 
	C187.076324,170.976913 187.005737,171.000549 186.979614,171.406250 
	C186.651260,175.225418 186.349030,178.638870 186.046783,182.052322 
	C186.046783,182.052322 185.997757,182.008026 185.788254,182.110321 
	C185.392715,182.495605 185.206680,182.778610 185.020645,183.061615 
	C185.020645,183.061615 185.002747,182.999893 184.753265,183.074127 
	C184.211914,183.388458 183.920013,183.628525 183.628128,183.868607 
	C183.628128,183.868607 183.483429,183.991455 182.908386,183.972717 
	C179.200104,183.982056 176.066864,184.010147 172.933609,184.038239 
	C172.933609,184.038239 173.001434,184.007736 172.900192,183.702988 
	C171.789368,182.918106 170.779785,182.437973 169.770203,181.957840 
	C169.770203,181.957840 169.499176,181.957458 169.166931,181.687531 
	C168.477249,181.262833 168.119812,181.108063 167.762390,180.953278 
	C167.762390,180.953278 167.511520,180.966492 167.218033,180.701218 
	C166.597260,180.300140 166.269974,180.164337 165.942688,180.028534 
	C165.942688,180.028534 165.996460,179.998764 165.863678,179.768890 
	C165.402573,179.344421 165.074249,179.149811 164.745941,178.955200 
	C164.745941,178.955200 164.494858,178.964142 164.167023,178.696960 
	C163.478897,178.271347 163.118576,178.112930 162.758270,177.954514 
z"/>
<path fill="#4CBBE1" opacity="1.000000" stroke="none" 
	d="
M88.108078,420.353088 
	C174.844742,419.989258 261.833588,419.986725 348.822418,420.011261 
	C351.639099,420.012054 354.455719,420.289368 357.633972,420.634277 
	C355.669464,420.887665 353.343353,420.994141 351.017273,420.994385 
	C265.285797,421.003601 179.554321,421.004730 93.822845,420.991760 
	C92.001968,420.991486 90.181129,420.813568 88.108078,420.353088 
z"/>
<path fill="#F2C53C" opacity="1.000000" stroke="none" 
	d="
M293.470520,82.089439 
	C285.772614,91.890930 285.451355,103.623024 292.946777,115.725616 
	C288.325134,114.837959 287.409790,110.823799 287.114441,107.054886 
	C286.663300,101.298630 286.819427,95.475121 287.042053,89.692650 
	C287.189667,85.858315 288.903229,82.844345 293.470520,82.089439 
z"/>
<path fill="#F2C53C" opacity="1.000000" stroke="none" 
	d="
M308.899353,143.596207 
	C297.353760,144.646988 285.573395,145.321854 273.343994,145.975159 
	C279.780792,143.226959 286.953552,142.679947 294.274017,142.988892 
	C299.065582,143.191132 303.867371,143.151535 308.899353,143.596207 
z"/>
<path fill="#F2C53C" opacity="1.000000" stroke="none" 
	d="
M306.477722,110.845764 
	C306.284607,103.873573 306.447906,96.720734 306.837311,89.247818 
	C306.986969,96.173531 306.910553,103.419327 306.477722,110.845764 
z"/>
<path fill="#F2C53C" opacity="1.000000" stroke="none" 
	d="
M331.062378,148.697937 
	C324.372620,147.562576 317.498230,146.072037 310.318481,144.375504 
	C316.967987,145.560593 323.922882,146.951675 331.062378,148.697937 
z"/>
<path fill="#F2C53C" opacity="1.000000" stroke="none" 
	d="
M398.523865,239.774994 
	C397.460663,234.924469 396.734619,229.854324 396.008759,224.321854 
	C396.959656,229.091476 397.910339,234.323425 398.523865,239.774994 
z"/>
<path fill="#F2C53C" opacity="1.000000" stroke="none" 
	d="
M410.066833,183.381805 
	C414.083313,183.008484 418.240784,182.983749 422.833649,182.949615 
	C418.852478,186.822052 415.213348,187.042206 410.066833,183.381805 
z"/>
<path fill="#4CBBE1" opacity="1.000000" stroke="none" 
	d="
M362.424866,420.900391 
	C368.031738,420.532318 374.106995,420.237152 380.663849,419.948242 
	C375.061371,420.294098 368.977295,420.633728 362.424866,420.900391 
z"/>
<path fill="#F2C53C" opacity="1.000000" stroke="none" 
	d="
M186.392838,181.916229 
	C186.349030,178.638870 186.651260,175.225418 186.997375,171.373657 
	C190.950623,174.662079 188.252136,178.204590 186.392838,181.916229 
z"/>
<path fill="#4CBBE1" opacity="1.000000" stroke="none" 
	d="
M117.645279,253.060638 
	C116.548439,255.553375 115.117615,258.153168 113.355888,260.814697 
	C114.453751,258.306885 115.882515,255.737289 117.645279,253.060638 
z"/>
<path fill="#F2C53C" opacity="1.000000" stroke="none" 
	d="
M173.088165,184.393555 
	C176.066864,184.010147 179.200104,183.982056 182.815979,183.951172 
	C180.161041,186.908569 176.748535,186.414764 173.088165,184.393555 
z"/>
<path fill="#F2C53C" opacity="1.000000" stroke="none" 
	d="
M378.893097,102.620338 
	C375.986389,102.986504 372.911591,103.003723 369.375427,102.996284 
	C371.984283,99.934769 375.321381,100.637024 378.893097,102.620338 
z"/>
<path fill="#F2C53C" opacity="1.000000" stroke="none" 
	d="
M356.686188,120.946457 
	C357.389008,123.881821 357.716095,127.037117 357.998413,130.623596 
	C357.405884,127.758652 356.858185,124.462517 356.686188,120.946457 
z"/>
<path fill="#F2C53C" opacity="1.000000" stroke="none" 
	d="
M361.687500,111.966232 
	C360.887146,114.157944 359.759735,116.507492 358.275208,118.914154 
	C359.065552,116.688866 360.212952,114.406464 361.687500,111.966232 
z"/>
<path fill="#F2C53C" opacity="1.000000" stroke="none" 
	d="
M155.612671,163.088501 
	C155.988754,165.717880 156.017502,168.503830 156.044403,171.762573 
	C153.501373,169.435898 154.221832,166.354431 155.612671,163.088501 
z"/>
<path fill="#F2C53C" opacity="1.000000" stroke="none" 
	d="
M396.375610,222.893616 
	C395.365753,220.307236 394.660126,217.538116 393.996704,214.350708 
	C394.919250,216.858582 395.799561,219.784744 396.375610,222.893616 
z"/>
<path fill="#F2C53C" opacity="1.000000" stroke="none" 
	d="
M272.580597,145.928024 
	C270.859344,146.602051 268.738800,147.330032 266.176086,148.052795 
	C267.883057,147.359039 270.032166,146.670502 272.580597,145.928024 
z"/>
<path fill="#F2C53C" opacity="1.000000" stroke="none" 
	d="
M171.031128,159.685471 
	C168.417877,159.669739 165.616150,159.288925 162.389923,158.896088 
	C164.924500,159.029510 167.883560,159.174942 171.031128,159.685471 
z"/>
<path fill="#F2C53C" opacity="1.000000" stroke="none" 
	d="
M383.483856,113.806564 
	C382.757965,111.589470 382.362854,109.177353 382.002167,106.350304 
	C382.629272,108.494095 383.221954,111.052826 383.483856,113.806564 
z"/>
<path fill="#F2C53C" opacity="1.000000" stroke="none" 
	d="
M159.757904,159.109436 
	C158.941711,160.423187 157.764023,161.655853 156.253937,162.929779 
	C157.079803,161.656815 158.238083,160.342575 159.757904,159.109436 
z"/>
<path fill="#F2C53C" opacity="1.000000" stroke="none" 
	d="
M406.602356,174.141876 
	C407.303009,176.051270 407.672607,178.146881 408.003662,180.647583 
	C407.400482,178.811142 406.835846,176.569611 406.602356,174.141876 
z"/>
<path fill="#F2C53C" opacity="1.000000" stroke="none" 
	d="
M177.943604,163.644806 
	C176.434830,163.191757 174.790253,162.417297 173.084381,161.282822 
	C174.617996,161.723007 176.212891,162.523193 177.943604,163.644806 
z"/>
<path fill="#F2C53C" opacity="1.000000" stroke="none" 
	d="
M361.957275,134.309708 
	C364.236053,133.953293 366.736328,133.968277 369.703674,133.988037 
	C367.506775,134.222260 364.842743,134.451675 361.957275,134.309708 
z"/>
<path fill="#C9C655" opacity="1.000000" stroke="none" 
	d="
M370.379272,314.985107 
	C370.854065,313.857910 371.655060,312.647522 372.749146,311.290863 
	C372.263336,312.397034 371.484406,313.649506 370.379272,314.985107 
z"/>
<path fill="#F2C53C" opacity="1.000000" stroke="none" 
	d="
M394.037598,213.611588 
	C393.370056,212.514999 392.660461,211.047974 391.960571,209.173645 
	C392.645386,210.257950 393.320465,211.749542 394.037598,213.611588 
z"/>
<path fill="#F2C53C" opacity="1.000000" stroke="none" 
	d="
M391.906006,207.805176 
	C391.196350,206.951645 390.560333,205.725708 389.930115,204.118896 
	C390.617157,204.969620 391.298431,206.201202 391.906006,207.805176 
z"/>
<path fill="#F2C53C" opacity="1.000000" stroke="none" 
	d="
M157.066757,174.339325 
	C158.014389,174.736908 159.080048,175.447952 160.255310,176.499924 
	C159.304855,176.111496 158.244827,175.382126 157.066757,174.339325 
z"/>
<path fill="#F2C53C" opacity="1.000000" stroke="none" 
	d="
M181.932587,165.628723 
	C180.769913,165.502472 179.500244,165.044754 178.122574,164.248566 
	C179.284927,164.372467 180.555252,164.834869 181.932587,165.628723 
z"/>
<path fill="#F2C53C" opacity="1.000000" stroke="none" 
	d="
M386.045227,195.630646 
	C385.375153,194.877731 384.674988,193.775406 384.006958,192.305130 
	C384.697784,193.051865 385.356476,194.166550 386.045227,195.630646 
z"/>
<path fill="#F2C53C" opacity="1.000000" stroke="none" 
	d="
M261.897675,149.073608 
	C261.039703,149.782745 259.806732,150.412933 258.199799,151.016602 
	C259.058105,150.324921 260.290405,149.659775 261.897675,149.073608 
z"/>
<path fill="#F2C53C" opacity="1.000000" stroke="none" 
	d="
M334.971802,150.662796 
	C334.123535,150.581345 333.129272,150.177979 331.964050,149.480957 
	C332.803986,149.571823 333.814880,149.956345 334.971802,150.662796 
z"/>
<path fill="#F2C53C" opacity="1.000000" stroke="none" 
	d="
M187.045013,170.643402 
	C186.376968,170.197998 185.677612,169.419083 185.015808,168.295288 
	C185.706802,168.736893 186.360260,169.523392 187.045013,170.643402 
z"/>
<path fill="#F2C53C" opacity="1.000000" stroke="none" 
	d="
M430.349976,179.041840 
	C430.798828,178.430405 431.574829,177.784576 432.685852,177.128082 
	C432.239624,177.747437 431.458344,178.377426 430.349976,179.041840 
z"/>
<path fill="#F2C53C" opacity="1.000000" stroke="none" 
	d="
M169.912872,182.277252 
	C170.779785,182.437973 171.789368,182.918106 172.888718,183.738419 
	C172.004181,183.584625 171.029877,183.090637 169.912872,182.277252 
z"/>
<path fill="#F2C53C" opacity="1.000000" stroke="none" 
	d="
M384.045044,191.642258 
	C383.387970,191.192307 382.702301,190.407364 382.024597,189.274963 
	C382.693878,189.720764 383.355194,190.514023 384.045044,191.642258 
z"/>
<path fill="#C9C655" opacity="1.000000" stroke="none" 
	d="
M202.609192,208.017059 
	C202.726868,208.534515 202.562759,209.155869 202.158844,209.794678 
	C202.055161,209.248398 202.191284,208.684662 202.609192,208.017059 
z"/>
<path fill="#F2C53C" opacity="1.000000" stroke="none" 
	d="
M306.046631,85.608032 
	C305.449738,85.559235 304.812164,85.145485 304.064026,84.452469 
	C304.637604,84.529831 305.321777,84.886452 306.046631,85.608032 
z"/>
<path fill="#F2C53C" opacity="1.000000" stroke="none" 
	d="
M365.680817,106.013084 
	C365.557434,106.541985 365.154388,107.177391 364.470276,107.911835 
	C364.593140,107.380455 364.997131,106.750023 365.680817,106.013084 
z"/>
<path fill="#4CBBE1" opacity="1.000000" stroke="none" 
	d="
M382.238159,419.898407 
	C382.732025,419.536285 383.595520,419.253082 384.807343,418.975037 
	C384.306427,419.312561 383.457123,419.644928 382.238159,419.898407 
z"/>
<path fill="#F2C53C" opacity="1.000000" stroke="none" 
	d="
M264.850525,148.100174 
	C264.615021,148.451202 264.010681,148.738312 263.066467,149.038239 
	C263.311615,148.712784 263.896606,148.374512 264.850525,148.100174 
z"/>
<path fill="#F2C53C" opacity="1.000000" stroke="none" 
	d="
M389.048340,201.691772 
	C388.762421,201.498825 388.428070,200.973145 388.037354,200.131760 
	C388.320618,200.330368 388.660248,200.844696 389.048340,201.691772 
z"/>
<path fill="#4CBBE1" opacity="1.000000" stroke="none" 
	d="
M119.752106,251.024689 
	C119.808128,251.210114 119.604858,251.473663 119.191589,251.874847 
	C119.152000,251.709274 119.322411,251.406036 119.752106,251.024689 
z"/>
<path fill="#F2C53C" opacity="1.000000" stroke="none" 
	d="
M377.004028,181.727783 
	C376.799713,181.790771 376.523590,181.583923 376.122528,181.146973 
	C376.309174,181.097244 376.620697,181.277603 377.004028,181.727783 
z"/>
<path fill="#F2C53C" opacity="1.000000" stroke="none" 
	d="
M306.902649,86.972916 
	C306.614105,87.006294 306.389069,86.722221 306.089905,86.176140 
	C306.332581,86.161240 306.649353,86.408348 306.902649,86.972916 
z"/>
<path fill="#F2C53C" opacity="1.000000" stroke="none" 
	d="
M379.996460,185.727722 
	C379.795746,185.773132 379.514862,185.541245 379.102234,185.065277 
	C379.285736,185.030945 379.600983,185.240692 379.996460,185.727722 
z"/>
<path fill="#F2C53C" opacity="1.000000" stroke="none" 
	d="
M380.887756,186.963913 
	C380.615479,186.994049 380.394135,186.713089 380.091431,186.176407 
	C380.319611,186.164734 380.629120,186.408768 380.887756,186.963913 
z"/>
<path fill="#F2C53C" opacity="1.000000" stroke="none" 
	d="
M381.993439,188.723053 
	C381.790588,188.764099 381.504883,188.524353 381.090607,188.030579 
	C381.278229,187.998444 381.594391,188.220352 381.993439,188.723053 
z"/>
<path fill="#F2C53C" opacity="1.000000" stroke="none" 
	d="
M368.764648,102.985832 
	C368.832764,103.182724 368.614410,103.420464 368.167480,103.768509 
	C368.152557,103.625877 368.332306,103.341835 368.764648,102.985832 
z"/>
<path fill="#F2C53C" opacity="1.000000" stroke="none" 
	d="
M386.894867,196.991455 
	C386.611816,197.023773 386.384186,196.740128 386.087463,196.192261 
	C386.329010,196.177185 386.639648,196.426331 386.894867,196.991455 
z"/>
<path fill="#4CBBE1" opacity="1.000000" stroke="none" 
	d="
M118.761444,252.060287 
	C118.807228,252.244278 118.603371,252.510406 118.170845,252.887985 
	C118.132050,252.713760 118.321930,252.428101 118.761444,252.060287 
z"/>
<path fill="#F2C53C" opacity="1.000000" stroke="none" 
	d="
M387.895325,198.953033 
	C387.602844,198.969482 387.363281,198.648239 387.036621,198.036316 
	C387.282440,198.035522 387.615326,198.325424 387.895325,198.953033 
z"/>
<path fill="#F2C53C" opacity="1.000000" stroke="none" 
	d="
M389.865234,202.913589 
	C389.611389,202.935623 389.406006,202.657776 389.102539,202.140320 
	C389.307556,202.138382 389.610657,202.376038 389.865234,202.913589 
z"/>
<path fill="#4CBBE1" opacity="1.000000" stroke="none" 
	d="
M126.737717,244.024231 
	C126.796448,244.222565 126.592896,244.493469 126.161072,244.883621 
	C126.113670,244.700851 126.294548,244.398819 126.737717,244.024231 
z"/>
<path fill="#4CBBE1" opacity="1.000000" stroke="none" 
	d="
M120.741440,250.015350 
	C120.803467,250.213654 120.602196,250.488510 120.173615,250.886536 
	C120.123581,250.703781 120.300858,250.397842 120.741440,250.015350 
z"/>
<path fill="#4CBBE1" opacity="1.000000" stroke="none" 
	d="
M121.740509,249.012909 
	C121.799789,249.210419 121.593216,249.480209 121.163727,249.878387 
	C121.118767,249.699570 121.296700,249.392380 121.740509,249.012909 
z"/>
<path fill="#F2C53C" opacity="1.000000" stroke="none" 
	d="
M381.998077,105.730904 
	C381.798798,105.790390 381.525696,105.582489 381.124817,105.148163 
	C381.306091,105.102325 381.615204,105.282913 381.998077,105.730904 
z"/>
<path fill="#4CBBE1" opacity="1.000000" stroke="none" 
	d="
M122.741508,248.016022 
	C122.801521,248.214279 122.598160,248.488007 122.166611,248.883591 
	C122.118317,248.700790 122.298233,248.396149 122.741508,248.016022 
z"/>
<path fill="#4CBBE1" opacity="1.000000" stroke="none" 
	d="
M123.738350,247.012970 
	C123.800140,247.213623 123.595238,247.483994 123.166306,247.880234 
	C123.118729,247.698303 123.295189,247.390488 123.738350,247.012970 
z"/>
<path fill="#F2C53C" opacity="1.000000" stroke="none" 
	d="
M381.008606,104.730545 
	C380.799805,104.798927 380.519165,104.597984 380.120728,104.162903 
	C380.314240,104.106255 380.625519,104.283745 381.008606,104.730545 
z"/>
<path fill="#F2C53C" opacity="1.000000" stroke="none" 
	d="
M380.002594,103.727005 
	C379.792145,103.796509 379.512970,103.596855 379.117859,103.163391 
	C379.312531,103.105667 379.623230,103.281761 380.002594,103.727005 
z"/>
<path fill="#4CBBE1" opacity="1.000000" stroke="none" 
	d="
M130.963074,240.147369 
	C130.992325,240.419434 130.720749,240.640518 130.193024,240.923508 
	C130.178680,240.689087 130.420456,240.392746 130.963074,240.147369 
z"/>
<path fill="#4CBBE1" opacity="1.000000" stroke="none" 
	d="
M124.738510,246.010376 
	C124.800682,246.209091 124.599861,246.485275 124.170105,246.882996 
	C124.119278,246.698944 124.297394,246.393402 124.738510,246.010376 
z"/>
<path fill="#4CBBE1" opacity="1.000000" stroke="none" 
	d="
M129.732178,241.009445 
	C129.787720,241.206177 129.573639,241.469818 129.142303,241.869888 
	C129.104218,241.696335 129.283386,241.386337 129.732178,241.009445 
z"/>
<path fill="#4CBBE1" opacity="1.000000" stroke="none" 
	d="
M125.733559,245.001831 
	C125.798294,245.207489 125.591873,245.478668 125.160828,245.876923 
	C125.111588,245.691803 125.286995,245.379593 125.733559,245.001831 
z"/>
<path fill="#4CBBE1" opacity="1.000000" stroke="none" 
	d="
M128.735428,241.997040 
	C128.803864,242.199356 128.608749,242.480133 128.183044,242.879929 
	C128.125595,242.691132 128.298737,242.383301 128.735428,241.997040 
z"/>
<path fill="#4CBBE1" opacity="1.000000" stroke="none" 
	d="
M127.732086,243.016846 
	C127.802429,243.226578 127.607132,243.500504 127.181938,243.886795 
	C127.123512,243.693115 127.294983,243.387085 127.732086,243.016846 
z"/>
<path fill="#F2C53C" opacity="1.000000" stroke="none" 
	d="
M362.972351,166.676636 
	C362.738342,166.838257 362.409698,166.696503 361.889893,166.357391 
	C362.091705,166.231125 362.484680,166.302185 362.972351,166.676636 
z"/>
<path fill="#F2C53C" opacity="1.000000" stroke="none" 
	d="
M369.999817,173.735779 
	C369.798035,173.795074 369.522644,173.584778 369.121094,173.143951 
	C369.305359,173.097672 369.615814,173.281952 369.999817,173.735779 
z"/>
<path fill="#F2C53C" opacity="1.000000" stroke="none" 
	d="
M156.108765,173.032333 
	C156.393341,172.994461 156.619308,173.268311 156.916931,173.799133 
	C156.675781,173.818771 156.362961,173.581421 156.108765,173.032333 
z"/>
<path fill="#F2C53C" opacity="1.000000" stroke="none" 
	d="
M369.009644,172.735245 
	C368.809692,172.792862 368.535004,172.578461 368.126862,172.136627 
	C368.307251,172.093887 368.621033,172.278564 369.009644,172.735245 
z"/>
<path fill="#F2C53C" opacity="1.000000" stroke="none" 
	d="
M368.013519,171.734512 
	C367.813507,171.794235 367.536072,171.582916 367.126068,171.143494 
	C367.307709,171.098099 367.621887,171.280777 368.013519,171.734512 
z"/>
<path fill="#F2C53C" opacity="1.000000" stroke="none" 
	d="
M367.010284,170.733948 
	C366.808136,170.794495 366.531311,170.583786 366.125000,170.143555 
	C366.308899,170.096924 366.622253,170.279800 367.010284,170.733948 
z"/>
<path fill="#F2C53C" opacity="1.000000" stroke="none" 
	d="
M366.011230,169.733383 
	C365.809296,169.795120 365.532501,169.586624 365.127106,169.149399 
	C365.311127,169.101486 365.623749,169.282318 366.011230,169.733383 
z"/>
<path fill="#F2C53C" opacity="1.000000" stroke="none" 
	d="
M365.012573,168.726837 
	C364.800476,168.797516 364.518707,168.597290 364.120728,168.161392 
	C364.317322,168.102463 364.630096,168.279205 365.012573,168.726837 
z"/>
<path fill="#F2C53C" opacity="1.000000" stroke="none" 
	d="
M364.008057,167.724670 
	C363.794739,167.796936 363.515106,167.599380 363.121918,167.167358 
	C363.319489,167.106888 363.630585,167.280869 364.008057,167.724670 
z"/>
<path fill="#F2C53C" opacity="1.000000" stroke="none" 
	d="
M184.965775,167.653076 
	C184.723160,167.827805 184.390640,167.694977 183.869690,167.360260 
	C184.079453,167.220734 184.477661,167.283127 184.965775,167.653076 
z"/>
<path fill="#F2C53C" opacity="1.000000" stroke="none" 
	d="
M371.003021,174.732498 
	C370.796539,174.798065 370.518829,174.593353 370.118103,174.157501 
	C370.307312,174.104965 370.619568,174.283600 371.003021,174.732498 
z"/>
<path fill="#F2C53C" opacity="1.000000" stroke="none" 
	d="
M183.098724,166.784317 
	C182.906586,166.849060 182.588501,166.652725 182.143097,166.203903 
	C182.334793,166.142029 182.653793,166.332642 183.098724,166.784317 
z"/>
<path fill="#F2C53C" opacity="1.000000" stroke="none" 
	d="
M172.977844,160.691071 
	C172.756927,160.842117 172.437881,160.698929 171.928467,160.367554 
	C172.118637,160.251877 172.499161,160.324371 172.977844,160.691071 
z"/>
<path fill="#F2C53C" opacity="1.000000" stroke="none" 
	d="
M363.703461,109.022049 
	C363.823364,109.208794 363.672760,109.438026 363.336792,109.785339 
	C363.019653,109.559364 363.113495,109.279747 363.703461,109.022049 
z"/>
<path fill="#F2C53C" opacity="1.000000" stroke="none" 
	d="
M292.992950,116.264206 
	C293.215881,116.102257 293.474152,116.261330 293.846649,116.652481 
	C293.686707,116.725212 293.375824,116.625435 292.992950,116.264206 
z"/>
<path fill="#F2C53C" opacity="1.000000" stroke="none" 
	d="
M357.676056,119.013550 
	C357.837433,119.247581 357.692963,119.573990 357.354126,120.092644 
	C357.229919,119.891899 357.300049,119.498909 357.676056,119.013550 
z"/>
<path fill="#F2C53C" opacity="1.000000" stroke="none" 
	d="
M360.029236,133.318573 
	C360.259552,133.160736 360.585022,133.304337 361.103149,133.640930 
	C360.905304,133.762619 360.514832,133.691330 360.029236,133.318573 
z"/>
<path fill="#F2C53C" opacity="1.000000" stroke="none" 
	d="
M358.999664,132.272675 
	C359.211517,132.202377 359.489502,132.400589 359.880157,132.832825 
	C359.683838,132.891617 359.374786,132.716385 358.999664,132.272675 
z"/>
<path fill="#F2C53C" opacity="1.000000" stroke="none" 
	d="
M358.005219,131.282455 
	C358.216827,131.210129 358.495850,131.403748 358.885132,131.832138 
	C358.687775,131.894073 358.380188,131.721252 358.005219,131.282455 
z"/>
<path fill="#F2C53C" opacity="1.000000" stroke="none" 
	d="
M166.033356,180.331543 
	C166.269974,180.164337 166.597260,180.300140 167.111176,180.635208 
	C166.906525,180.767838 166.515274,180.701187 166.033356,180.331543 
z"/>
<path fill="#F2C53C" opacity="1.000000" stroke="none" 
	d="
M183.956635,183.923492 
	C183.920013,183.628525 184.211914,183.388458 184.781860,183.089005 
	C184.801666,183.345886 184.543411,183.662140 183.956635,183.923492 
z"/>
<path fill="#F2C53C" opacity="1.000000" stroke="none" 
	d="
M424.030853,182.906219 
	C424.014008,182.601089 424.342285,182.357132 424.969177,182.031189 
	C424.970520,182.288605 424.673248,182.628006 424.030853,182.906219 
z"/>
<path fill="#F2C53C" opacity="1.000000" stroke="none" 
	d="
M408.994629,182.273376 
	C409.203735,182.207077 409.480591,182.411819 409.877869,182.848724 
	C409.686340,182.902054 409.374359,182.723236 408.994629,182.273376 
z"/>
<path fill="#F2C53C" opacity="1.000000" stroke="none" 
	d="
M378.008606,182.719177 
	C377.791718,182.792862 377.509521,182.595139 377.116333,182.159378 
	C377.317993,182.096817 377.630676,182.272293 378.008606,182.719177 
z"/>
<path fill="#F2C53C" opacity="1.000000" stroke="none" 
	d="
M185.287537,183.001282 
	C185.206680,182.778610 185.392715,182.495605 185.819595,182.116119 
	C185.891769,182.326736 185.723099,182.633850 185.287537,183.001282 
z"/>
<path fill="#F2C53C" opacity="1.000000" stroke="none" 
	d="
M426.000763,181.897919 
	C425.986664,181.595230 426.320618,181.348404 426.959717,181.024353 
	C426.959534,181.282654 426.654175,181.618210 426.000763,181.897919 
z"/>
<path fill="#F2C53C" opacity="1.000000" stroke="none" 
	d="
M408.006958,181.273926 
	C408.216614,181.206390 408.494446,181.405396 408.883820,181.839661 
	C408.688629,181.896790 408.381897,181.718628 408.006958,181.273926 
z"/>
<path fill="#F2C53C" opacity="1.000000" stroke="none" 
	d="
M167.908264,181.254364 
	C168.119812,181.108063 168.477249,181.262833 169.047974,181.622589 
	C168.858902,181.736847 168.456512,181.646149 167.908264,181.254364 
z"/>
<path fill="#F2C53C" opacity="1.000000" stroke="none" 
	d="
M376.002869,180.726044 
	C375.798431,180.773605 375.514862,180.542130 375.102356,180.063339 
	C375.290161,180.026352 375.606964,180.236679 376.002869,180.726044 
z"/>
<path fill="#F2C53C" opacity="1.000000" stroke="none" 
	d="
M378.885254,183.933731 
	C378.606659,183.968063 378.387512,183.697891 378.093475,183.177505 
	C378.327271,183.161255 378.636017,183.395233 378.885254,183.933731 
z"/>
<path fill="#F2C53C" opacity="1.000000" stroke="none" 
	d="
M429.027466,179.898468 
	C428.991211,179.607101 429.269653,179.378464 429.810913,179.084518 
	C429.829865,179.333206 429.586029,179.647217 429.027466,179.898468 
z"/>
<path fill="#F2C53C" opacity="1.000000" stroke="none" 
	d="
M164.873108,179.223343 
	C165.074249,179.149811 165.402573,179.344421 165.857910,179.798950 
	C165.656708,179.869736 165.328491,179.680603 164.873108,179.223343 
z"/>
<path fill="#F2C53C" opacity="1.000000" stroke="none" 
	d="
M374.855713,178.885468 
	C374.594849,178.916733 374.384796,178.655960 374.088257,178.159210 
	C374.303345,178.146622 374.604919,178.370041 374.855713,178.885468 
z"/>
<path fill="#F2C53C" opacity="1.000000" stroke="none" 
	d="
M162.909927,178.254028 
	C163.118576,178.112930 163.478897,178.271347 164.059174,178.632538 
	C163.873276,178.741394 163.467438,178.647461 162.909927,178.254028 
z"/>
<path fill="#F2C53C" opacity="1.000000" stroke="none" 
	d="
M373.996918,177.742386 
	C373.802795,177.797119 373.528870,177.586304 373.125244,177.148376 
	C373.302704,177.106476 373.609894,177.291656 373.996918,177.742386 
z"/>
<path fill="#F2C53C" opacity="1.000000" stroke="none" 
	d="
M160.910294,177.250427 
	C161.116821,177.111008 161.476746,177.268311 162.055298,177.628784 
	C161.870499,177.737030 161.467102,177.642075 160.910294,177.250427 
z"/>
<path fill="#F2C53C" opacity="1.000000" stroke="none" 
	d="
M373.007324,176.732330 
	C372.800873,176.798447 372.521179,176.594925 372.119995,176.158508 
	C372.310333,176.104645 372.622223,176.283691 373.007324,176.732330 
z"/>
<path fill="#F2C53C" opacity="1.000000" stroke="none" 
	d="
M372.003235,175.731186 
	C371.796570,175.796951 371.518829,175.592819 371.118958,175.157181 
	C371.308624,175.104202 371.620361,175.282745 372.003235,175.731186 
z"/>
</svg>